<svg xmlns="http://www.w3.org/2000/svg" viewBox="0 0 205.22 49.36"><defs><style>.cls-1{fill:#fff;}</style></defs><g id="图层_2" data-name="图层 2"><g id="图层_1-2" data-name="图层 1"><path class="cls-1" d="M40.52,24.12c0,.38.06.76.1,1.14l-.27,0L40.27,25a1.61,1.61,0,0,0-.49,0L39.2,25,38,25.12l-.51.06a.61.61,0,0,0,0,.26c0,.26.32.39.5.5l2.5,1.3v.44L38,28.26c-.27.07-.74.08-.87.28a1.3,1.3,0,0,0-.08.58,2.86,2.86,0,0,0,1,.29l1,.25a1.74,1.74,0,0,0,.75.15l.14-.33.24.05L39.79,31v0L39.54,31c0-.12,0-.24,0-.36a2.84,2.84,0,0,0-.81-.25l-2-.51a5.46,5.46,0,0,0-.11.56c0,.43.14.65.72.89,0,.1-.07.2-.1.3l-1.12-.4.24-1c.1-.42.24-.87.32-1.33a8.5,8.5,0,0,0,.14-1.07c0-.2.07-.43.07-.63l.26,0a1.37,1.37,0,0,0,0,.36c.25.12.57,0,.81-.08,0-.35.09-.7.13-1.05a1.1,1.1,0,0,0-.24-.15,1.33,1.33,0,0,0-.45-.15l-.08.05a.58.58,0,0,0-.1.35l-.27,0c0-.34.1-.62.11-1s0-.48-.05-.7a4.63,4.63,0,0,0-.06-.62c0-.07,0-.16,0-.16a.63.63,0,0,1,.26,0c0,.1,0,.21.05.31a.36.36,0,0,0,.19.05c.14,0,.33,0,.51,0,.6,0,1.34-.14,1.69-.14v0L37,23.45l0-.33,2.42-1.22h0a2.52,2.52,0,0,0-.73,0c-.42,0-1,.08-1.3.14a.59.59,0,0,0-.26.13l0,.35h-.27a10.61,10.61,0,0,0-.11-1.18c0-.05,0-.08,0-.13-.07-.25-.18-.49-.25-.76.53-.51,1-.71,1.21-1.19,0-.1,0-.21-.07-.35a3.77,3.77,0,0,0-1.17.47c0,.1,0,.23,0,.34l-.25.08c-.16-.48-.33-1-.49-1.45l.24-.08.15.31a2.68,2.68,0,0,0,.82-.21L38.18,18c.21-.09.56-.11.66-.3s0-.21-.05-.31l.24-.09c.07.25.23.66.38,1.09a2.57,2.57,0,0,1,.22,1.37.9.9,0,0,1-1,.51.76.76,0,0,1-.63-.48h0a1.32,1.32,0,0,1-.61,1,2.61,2.61,0,0,0-.38.44l.12.44a.57.57,0,0,0,.32.11,21.21,21.21,0,0,0,2.49-.24.47.47,0,0,0,0-.36l.27,0c0,.39.06.78.1,1.17L38.06,23.4Zm-1,3.05s0,0,0,0l-1.07-.54-.09.82Zm-.36-7.89c.21-.22,0-.59,0-.84h-.05l-1.22.42a.8.8,0,0,0,.35.6A.84.84,0,0,0,39.17,19.28Z" transform="translate(-0.02 -0.02)"/><path class="cls-1" d="M38.72,34l.25.1c-.22.44-.43.89-.65,1.33-.08,0-.15,0-.24-.08s.06-.21.1-.31c-.13-.22-.48-.3-.71-.42s-.53-.28-.85-.43c-.55-.27-1.13-.41-1.41.25s.25,1,1,1.36l.65.32a1.22,1.22,0,0,0,.59.2c.1,0,.19-.14.27-.28l.24.1-.54,1.12-.25-.1c0-.12.11-.21.07-.36s-.35-.28-.55-.38l-.62-.31c-.6-.28-1.59-.75-1.14-1.85a2.1,2.1,0,0,1,.33-.52,1.14,1.14,0,0,1,.43-.37,2.28,2.28,0,0,1,.31-.1,2.58,2.58,0,0,1,.4,0,3.37,3.37,0,0,1,.76.33L38,34a1.68,1.68,0,0,0,.56.25A.58.58,0,0,0,38.72,34Z" transform="translate(-0.02 -0.02)"/><path class="cls-1" d="M38.13,15.69a1.77,1.77,0,0,1,.16,1.21,1,1,0,0,1-.2.43,2,2,0,0,1-.89.71,2,2,0,0,1-1.25.2,1.69,1.69,0,0,1-1-2.41,2.22,2.22,0,0,1,1.26-.9l.47-.09a1.73,1.73,0,0,1,.84.19A1.59,1.59,0,0,1,38.13,15.69Zm-.17.72A.71.71,0,0,0,38,16a.74.74,0,0,0-.82-.51l-.43.08a3.12,3.12,0,0,0-1.48.89.77.77,0,0,0,.11,1,.84.84,0,0,0,.6.12l.18,0A2.9,2.9,0,0,0,38,16.41Z" transform="translate(-0.02 -0.02)"/><path class="cls-1" d="M37.14,37.14l.2.15-.56.81a2.88,2.88,0,0,1-.89,0l-2.1,0a7.32,7.32,0,0,0,.69.51,6.19,6.19,0,0,0,.94.61c.24,0,.24-.16.4-.23l.15.1,0,.06-.69,1-.05,0L35.08,40c0-.09.09-.2.11-.36a1.07,1.07,0,0,0-.15-.22,3.19,3.19,0,0,0-.61-.47l-.9-.64-.78-.56c-.06-.13.11-.23.17-.37s.11-.05.29-.05h.66l2.35,0h0a1.65,1.65,0,0,1-.31-.2,2.64,2.64,0,0,1-.29-.21l-.53-.4a2.92,2.92,0,0,0-.75-.45.5.5,0,0,0-.3.25h0l-.18-.11,0,0,.72-1,.23.13c0,.09-.08.18-.13.27,0,.33.3.43.5.57l.81.61a4,4,0,0,0,.85.56C37,37.35,37,37.24,37.14,37.14Z" transform="translate(-0.02 -0.02)"/><path class="cls-1" d="M37.22,14c-.06.06-.12.13-.18.18L36.81,14c-.29-.11-.54.28-.68.41l-1.69,1.68h0l-.29-.28.57-3.23-.59.6c-.26.26-.54.49-.79.78a2.53,2.53,0,0,0-.18.27c0,.19.12.23.18.36v0l-.18.17-.89-.91.19-.18.25.18c.34,0,.5-.27.68-.45l.84-.82a3.87,3.87,0,0,0,.54-.61c0-.18-.1-.24-.18-.35l.17-.18.74.71c-.17,1-.33,1.94-.5,2.9a6.11,6.11,0,0,0,.48-.47,5.36,5.36,0,0,0,.89-1c0-.18-.12-.28-.18-.38l.18-.18Z" transform="translate(-0.02 -0.02)"/><path class="cls-1" d="M35,40.08l.15.16a5.57,5.57,0,0,1-.51.58,8.64,8.64,0,0,1-.85.86l-.78.72-.16-.18c0-.08.24-.21.19-.35s-.4-.25-.54-.33L31,40.74c.14.29.36.86.58,1.36a2.5,2.5,0,0,0,.43.76c.18,0,.25-.11.36-.2l.18.19a4,4,0,0,1-.47.45,11.72,11.72,0,0,1-1.62,1.19l-1,.7c-.08-.08-.21-.26-.36-.43a2.46,2.46,0,0,1-.33-.43l.25-.17a.21.21,0,0,0,0,.06.67.67,0,0,0,.81.3,6.62,6.62,0,0,0,.61-.37c0-.09-.07-.18-.17-.31a4.77,4.77,0,0,1-.49-.7l-.05,0c-.12.11-.25.17-.36.27a.73.73,0,0,0-.15.2c0,.07,0,.11,0,.16l0,.06.09.22-.22.13v0l-.75-1,.23-.16c.12.09.18.18.25.22.27.13.29-.06.71-.25a.05.05,0,0,1,0,0c-.26-.36-.51-.72-.76-1.09l0,0c-.36.24-.66.41-.73.72a1.17,1.17,0,0,0,.14.7,1,1,0,0,1,0,.1l-.26.15c-.24-.41-.42-.76-.58-1,.07-.08.47-.34.9-.65a12.46,12.46,0,0,1,1.28-.86l.13.2h0a.69.69,0,0,0-.25.23c0,.2.28.48.38.63.21.3.43.62.64.94a4.65,4.65,0,0,0,.6.77.52.52,0,0,0,.48-.39,1.08,1.08,0,0,0-.1-.56l-1.11-2.61.15-.13a.6.6,0,0,1,.19-.17s.17.08.26.13.31.15.43.21l1.3.67c.15.09.33.2.51.29a1.47,1.47,0,0,0,.53.19.53.53,0,0,0,.39-.4,1.65,1.65,0,0,0-.37-.38c-.17-.16-.37-.32-.53-.46s-.46-.42-.7-.64a2.1,2.1,0,0,0-.51-.39L32,39l-.21.21-.19-.18,1-1.17.21.18a.89.89,0,0,0-.21.32,3.28,3.28,0,0,0,.65.64c.35.29.72.62,1,.84s.32.35.51.4.07,0,.11,0l.18-.18Z" transform="translate(-0.02 -0.02)"/><path class="cls-1" d="M32.61,29.07v.05H23.79l0,.44H18.93v-.41H10c.37-1.08.72-2.15,1.09-3.23a5.47,5.47,0,0,0,2,.3,17.85,17.85,0,0,0,4.06-.67,7.15,7.15,0,0,0,.92-.27,4,4,0,0,1,.51-.19c1.39-.24,1.85-.07,2.58,1l.07.05a3.53,3.53,0,0,1,1.22-1,3.17,3.17,0,0,1,1.93,0c.38.1,1,.32,1.42.43a12.85,12.85,0,0,0,4.94.5,5.06,5.06,0,0,0,.94-.18C32,27,32.3,28,32.61,29.07Z" transform="translate(-0.02 -0.02)"/><path class="cls-1" d="M32,16.83c0,.5,0,1,0,1.39,0,.88,0,1.76,0,2.64a9.2,9.2,0,0,1-.07,1,3.15,3.15,0,0,1-1.12,1.5,3.38,3.38,0,0,1-3.62.25,3.11,3.11,0,0,1-1.6-2.2c0-1.14,0-2.26,0-3.4a1.09,1.09,0,0,0,0-.26s0,0,0-.05h-.4c0-.13,0-.26,0-.39.3,0,.62,0,.74.14a1,1,0,0,1,.05.33c0,.24,0,.53,0,.71v2.74a2.85,2.85,0,0,0,2.3,2.37,3,3,0,0,0,3.27-2.07c0-.38,0-.75,0-1.13,0-.57,0-1.15,0-1.73s0-1.66,0-2.26a.38.38,0,0,0-.18-.31,1.88,1.88,0,0,0-.71-.09c-.47,0-1.05,0-1.33,0l.23-.31a.22.22,0,0,1,.16,0h.42c.2,0,.42,0,.65,0a2.87,2.87,0,0,1,.79.07.63.63,0,0,1,.34.32A2.45,2.45,0,0,1,32,16.83Z" transform="translate(-0.02 -0.02)"/><path class="cls-1" d="M31.62,9.14a1.43,1.43,0,0,0-.08.22c-.13,0-.22-.08-.4-.09-.29.39-.47.86-.73,1.29l-.67,1.22.57.28a.88.88,0,0,0,1-.5l.25.14a.17.17,0,0,0,0,.05c-.22.3-.43.61-.65.92,0,0,0,0-.05,0-.46-.28-.88-.5-1.37-.76-.22-.11-.48-.29-.74-.39s-.45-.14-.66-.2-.5-.15-.79-.21c0-.09,0-.17,0-.25a1.64,1.64,0,0,0,.38,0c.11-.21,0-.57,0-.83l-1-.25c-.08,0-.19.16-.27.3a.84.84,0,0,0-.14.33c0,.13.12.21.36.25h0a1.42,1.42,0,0,1-.07.22v0l-1.23-.29a1.66,1.66,0,0,1,0-.22v-.05c.46.1.62-.24.81-.51l1.56-2.23.43.07c.08.79.16,1.57.23,2.36.06.35,0,.82.17,1.05a.8.8,0,0,0,.44.22,5.35,5.35,0,0,0,.71-1.21c.16-.27.34-.57.49-.87a2.46,2.46,0,0,0,.19-.4.69.69,0,0,0-.3-.23l.12-.23.24.12Zm-4,.6h.05c0-.15,0-.49-.07-.78,0-.09,0-.24,0-.31s0-.11,0-.1l-.67,1Z" transform="translate(-0.02 -0.02)"/><path class="cls-1" d="M31.26,17.44c0,.54,0,1.1,0,1.28v2.6A4.6,4.6,0,0,1,31,22a2.21,2.21,0,0,1-1.84,1.28,3.4,3.4,0,0,1-.63,0,2.33,2.33,0,0,1-1.65-.75,2.79,2.79,0,0,1-.65-1.44V17.69a1,1,0,0,0-.05-.41A.61.61,0,0,0,25.7,17a4.67,4.67,0,0,0-.53,0c0-.26,0-.51,0-.76h1.16a3.84,3.84,0,0,1,.7,0,.68.68,0,0,1,.45.3.71.71,0,0,1,0,.34c0,.29,0,.66,0,.9,0,.48,0,1.17,0,1.83a11.1,11.1,0,0,0,0,1.46,1.17,1.17,0,0,0,.22.54,1.39,1.39,0,0,0,1,.56,1.49,1.49,0,0,0,1.61-1c0-.87,0-1.73,0-2.59v-.35L28.7,16.85v0c.13-.17.25-.35.38-.53a.45.45,0,0,1,.15-.06c.18,0,.48,0,.78,0a3.16,3.16,0,0,1,1.16.1C31.29,16.46,31.25,16.78,31.26,17.44Z" transform="translate(-0.02 -0.02)"/><path class="cls-1" d="M30.12,18.77a6.69,6.69,0,0,1,0,.94c0,.46,0,.93,0,1.4a1.22,1.22,0,0,1-1.78.61,1.24,1.24,0,0,1-.44-.71c0-1.18,0-2.35,0-3.53,0-.21,0-.42,0-.64a3.55,3.55,0,0,0,0-.46.64.64,0,0,0-.51-.33,4.8,4.8,0,0,0-.88-.05H25.19v-.38c.43,0,.95,0,1.42,0,1,0,1.31.12,1.53.48a3.1,3.1,0,0,1,.12,1.3,3.25,3.25,0,0,1,.23-.29l0,0,1.56,1.3A1,1,0,0,1,30.12,18.77Zm-.45,2.17c0-.81,0-1.77,0-2.34l-1.43-1.2v2.44c0,.2,0,.46,0,.7a1.54,1.54,0,0,0,0,.45.71.71,0,0,0,.51.51.63.63,0,0,0,.52-.07.65.65,0,0,0,.28-.31C29.64,21,29.67,21,29.67,20.94Z" transform="translate(-0.02 -0.02)"/><path class="cls-1" d="M29.81,34.71a.94.94,0,0,1,0,.24l-3,0c0-.06,0,0,0-.13s0-.11.05-.14a2.07,2.07,0,0,1,.29,0,3.93,3.93,0,0,0,.56-.06l.06,0c.13-.08.09-.24.13-.72l-2.21,0a.58.58,0,0,1,.1-.58l.4-.59c.39-.56.88-1.09,1.12-1.38l.56-.61a5.66,5.66,0,0,1,1.2-.13.64.64,0,0,1,0,.22,2.9,2.9,0,0,1,0,.45l0,2.08h.79c.07.07,0,.37,0,.49a2.45,2.45,0,0,1-.82,0,3.93,3.93,0,0,0,.07.73A2.42,2.42,0,0,0,29.81,34.71Zm-1.95-1.37c0-.72,0-1.44.05-2.16a3.19,3.19,0,0,0-.43.46c-.3.38-.55.68-.76,1l-.43.65a.43.43,0,0,0,0,.05Z" transform="translate(-0.02 -0.02)"/><path class="cls-1" d="M28.8,45.28a.49.49,0,0,1,.12.25,4.28,4.28,0,0,0-.43.19,5.6,5.6,0,0,1-1.67.7.82.82,0,0,1-.88-.7,1,1,0,0,1,0-.42c.06-.22.25-.35.38-.51a1.58,1.58,0,0,1-1.08-.56.83.83,0,0,0-.41-.25l-.19,0c.1.3.2.61.31.92l-.28.11a1.81,1.81,0,0,1-.19-.29.76.76,0,0,0-.47-.4h-.14a.71.71,0,0,0-.21,0,.54.54,0,0,0-.39.73.53.53,0,0,0,.34.29,6.5,6.5,0,0,0,1.14.17,1.08,1.08,0,0,1,.53.23.83.83,0,0,1,.21.38,1,1,0,0,1,0,.64,1.23,1.23,0,0,1-.65.66,4,4,0,0,1-.71.19,1.17,1.17,0,0,0-.36.23,1.2,1.2,0,0,1-.1-.22l-.09-.27a1,1,0,0,1-.06-.16,2.22,2.22,0,0,1-.14-.48l.29-.09a.93.93,0,0,0,.6.62c.34.09.78-.19.7-.53-.17-.7-.9-.43-1.56-.59a1,1,0,0,1-.59-.36,1.09,1.09,0,0,1-.16-.95,1.17,1.17,0,0,1,.15-.27,1.36,1.36,0,0,1,.63-.46l.76-.18c.1,0,.19-.12.28-.17l.89-.44c.4.31.77.91,1.29,1,.13,0,.21,0,.38-.1-.18-.35-.35-.7-.52-1a.18.18,0,0,0-.1-.06.66.66,0,0,0-.34.1,2.44,2.44,0,0,1-.1-.24l1.35-.68.13.2v.05c-.1,0-.32.11-.28.3s.26.5.38.76.31.62.46,1a2.51,2.51,0,0,0,.42.73Zm-1,.48-.59-1.22c-.21.16-.46.21-.56.46a.78.78,0,0,0,.53,1C27.42,46,27.62,45.82,27.79,45.76Z" transform="translate(-0.02 -0.02)"/><path class="cls-1" d="M15.61,40.37a3.42,3.42,0,0,0-.28-.22,4.32,4.32,0,0,1-.67-.62,6.38,6.38,0,0,1-1-1.5,7,7,0,0,1-.49-1.36,3.92,3.92,0,0,1,.83.44,6.78,6.78,0,0,1,2,2.13,3.66,3.66,0,0,1,.4.74,2,2,0,0,1,.13.61c.56.07,1.09.2,1.67.28a5,5,0,0,0,.56.06h0a3.53,3.53,0,0,1-1.08-.66,7,7,0,0,1-1.89-2.47v0a7.16,7.16,0,0,1,1.46.57,6.89,6.89,0,0,1,1.61,1.27,3.33,3.33,0,0,1,.9,1.36c.47,0,.93,0,1.36-.09.22,0,.4-.07.62-.08v0A6.42,6.42,0,0,1,18.93,39a3.09,3.09,0,0,1-.53-.68l0,0a1.3,1.3,0,0,1,.51,0,5.48,5.48,0,0,1,.85.21A6.7,6.7,0,0,1,22,39.74a2.29,2.29,0,0,1,.79.85,9.76,9.76,0,0,0,1.33-.33A5.75,5.75,0,0,0,25,40h0l-.64-.05a7.6,7.6,0,0,1-1.27-.32,8.48,8.48,0,0,1-1.45-.71L21,38.35l0-.05a2.24,2.24,0,0,1,.84-.09,7.25,7.25,0,0,1,3.11.71,3.64,3.64,0,0,1,.72.39,1.14,1.14,0,0,1,.25.24.09.09,0,0,0,.06,0c.34-.11,1.19-.6,1.4-.69l.21.35a7.17,7.17,0,0,1-.78.43L26,40l-.4.15a2.33,2.33,0,0,0-.11.28l-.5.75a5.56,5.56,0,0,1-.89.93,7.48,7.48,0,0,1-.82.64,4,4,0,0,1-1.22.56h-.33a4.62,4.62,0,0,1,1.32-2l.64-.49h0v0l-1.3.28-.58.72a5.65,5.65,0,0,1-1.16,1,3.67,3.67,0,0,1-2.36.8,4.46,4.46,0,0,1,1.43-1.75l.61-.37.17-.09c-.55,0-1.07,0-1.59,0a6.72,6.72,0,0,1-1.09.79,6.21,6.21,0,0,1-3,.82,1.53,1.53,0,0,1-.49-.11v0a4.49,4.49,0,0,1,2.43-1.58,5,5,0,0,1,.52-.14l-1.77-.36-.28.2-.86.43a6.72,6.72,0,0,1-2.17.48,4.66,4.66,0,0,1-1.14-.07l-.39-.18c.08-.24.45-.4.66-.53a5.32,5.32,0,0,1,2.75-.76h0a6.1,6.1,0,0,1-.92-.36,2,2,0,0,0-.42-.19l-.74.27-.92.16a4.43,4.43,0,0,1-1.15,0,4.86,4.86,0,0,1-2.13-.55l-.18-.2a9.79,9.79,0,0,1,.92-.38,5.64,5.64,0,0,1,2.52,0c.21,0,.38.09.56.13L9.71,38.07a6.62,6.62,0,0,1-3.93-.19,1.92,1.92,0,0,1-.72-.38.65.65,0,0,1-.16-.21c.08,0,.21-.09.29-.12A6.85,6.85,0,0,1,5.91,37a5.87,5.87,0,0,1,2.68.23l-1.08-1a10.47,10.47,0,0,1-1.69,0,6.5,6.5,0,0,1-2.06-.69c-.38-.19-.9-.43-1-.87a4.91,4.91,0,0,1,.88-.13,5.44,5.44,0,0,1,2,.33l1,.47c-.19-.26-.43-.52-.65-.79a1.76,1.76,0,0,1-.3-.43c0-.07-.25,0-.48-.06s-.75-.09-.93-.13A7.36,7.36,0,0,1,2.19,33,2.58,2.58,0,0,1,1.11,31.9a1.37,1.37,0,0,1,.43,0,5.7,5.7,0,0,1,.8.06,4.18,4.18,0,0,1,.73.16,5.92,5.92,0,0,1,1.34.64l.61.43c-.13-.25-.28-.48-.41-.72l-.38-.75C2.88,31.36.57,29.86.39,28.49a2.92,2.92,0,0,1,.87.19l.23.08.1,0,.16.07A6,6,0,0,1,3,29.73l.65.66c-.1-.29-.19-.55-.28-.84l-.25-.83a1.6,1.6,0,0,0-.36-.23,7.08,7.08,0,0,1-.62-.38A6.86,6.86,0,0,1,.85,26.78,3,3,0,0,1,0,24.86a7.29,7.29,0,0,1,.73.31A5,5,0,0,1,2.4,26.64a3.07,3.07,0,0,1,.38.56l0,0c-.07-.52-.13-1-.2-1.56a4.53,4.53,0,0,1-.82-.74l-.21-.26a4.64,4.64,0,0,1-.44-.6,6.48,6.48,0,0,1-.63-1.23,4.36,4.36,0,0,1-.21-.64,2.28,2.28,0,0,1,0-1,4.89,4.89,0,0,1,2.25,2.92c0-.55,0-1.1.05-1.65a7,7,0,0,1-1-1.53A6.83,6.83,0,0,1,1,19.46a2.49,2.49,0,0,1,0-1.55l0-.05a4,4,0,0,1,.9.94,6,6,0,0,1,.56,1c.09.3.18.61.28.91v0L3,19.33l-.3-.4A4.69,4.69,0,0,1,2,17.53a8,8,0,0,1-.2-1.25,2.66,2.66,0,0,0,0-.28v-.63c0-.32.07-.64.11-1,.07,0,.12.09.18.17s.25.35.33.46a4.87,4.87,0,0,1,.48.89,6,6,0,0,1,.28.78,4.65,4.65,0,0,1,.18,1h0a8.18,8.18,0,0,1,.44-1.32,6.75,6.75,0,0,1-.69-3,4.88,4.88,0,0,1,.15-1.28,1.67,1.67,0,0,1,.16-.38,1.77,1.77,0,0,1,.12-.17l0,0a2.18,2.18,0,0,1,.38.57,5,5,0,0,1,.47,1.6,12.39,12.39,0,0,1,0,1.36h0L5,14c.06-.09.12-.19.19-.28S5,13.33,5,13.13s-.09-.65-.15-1a3.42,3.42,0,0,1,0-.64,6.78,6.78,0,0,1,.34-2,2.26,2.26,0,0,1,.24-.44l.18-.17a4.21,4.21,0,0,1,.39,1A5.5,5.5,0,0,1,6,12.4H6l.79-1.12a5.6,5.6,0,0,1,.55-4,3.74,3.74,0,0,1,.55-.87l0,0h0a6.37,6.37,0,0,1,.19.93,7.14,7.14,0,0,1-.32,2.76c.24-.26.49-.52.73-.79L8.79,9c0-.19,0-.38,0-.57a4.92,4.92,0,0,1,.11-1.19,7,7,0,0,1,1-2.21l.56-.7,0,0h0c0,.24.08.47.09.72A6.17,6.17,0,0,1,10.32,7c-.11.31-.23.63-.34,1l.85-.69a5.32,5.32,0,0,1,.4-2,6.46,6.46,0,0,1,1.1-1.74,4.51,4.51,0,0,1,.78-.75A6.52,6.52,0,0,1,13,4.09L13,4.35a4.45,4.45,0,0,1-.24.78c-.15.39-.36.72-.55,1.11l1.1-.68c.05-.19.08-.37.12-.56a2.77,2.77,0,0,1,.15-.49,6.44,6.44,0,0,1,2.68-3.07,3.49,3.49,0,0,1-.2,1,6.19,6.19,0,0,1-.65,1.44c-.18.25-.35.5-.53.74l-.07.09,1.37-.63a3.44,3.44,0,0,1,.48-1.16,6.11,6.11,0,0,1,1.54-1.68l.19-.13c.2-.14.5-.34.75-.48a1.53,1.53,0,0,1,.39-.18,4.31,4.31,0,0,1-.2.69,5.91,5.91,0,0,1-1,1.75c-.16.2-.33.35-.5.56L19,3.09a6,6,0,0,1,1.07-1.5A6.09,6.09,0,0,1,22.23.08l.2,0a1,1,0,0,1,.39,0h0a5.1,5.1,0,0,1-.31.69,5.6,5.6,0,0,1-.38.61,5.3,5.3,0,0,1-.88.89,2.66,2.66,0,0,1-.61.42l0,0c.17,0,.4-.08.58-.11a1.34,1.34,0,0,0,.46-.08A6.85,6.85,0,0,1,23,2a7.28,7.28,0,0,1,1.57-.15,4.49,4.49,0,0,1,.89,0,1.27,1.27,0,0,1,.26,0,1.64,1.64,0,0,1,.41.13l.1,0c.1.05.14.11.25.16l0,0a2.23,2.23,0,0,1-.74.42,5.48,5.48,0,0,1-2.88.39c-.25,0-.47-.06-.73-.11L21.75,3a.91.91,0,0,0-.33,0c-.34,0-.73.16-1,.19l.74.07a3.74,3.74,0,0,1,2.41,1,2.65,2.65,0,0,1-1.08.32,6.37,6.37,0,0,1-3.39-.63,2.68,2.68,0,0,1-.47-.27,5.67,5.67,0,0,0-1,.3,4.84,4.84,0,0,0-.7.28h0l.57,0h.57c.28,0,.64.07,1,.13a4.49,4.49,0,0,1,1.07.32l.23.14a.56.56,0,0,1,.25.26c-.18.09-.36.16-.56.24a6.12,6.12,0,0,1-.71.18,4.36,4.36,0,0,1-1.08,0,6.49,6.49,0,0,1-2.68-.72l-1.23.62h0l.52,0h1.14a6.41,6.41,0,0,1,1.4.3h0a1.81,1.81,0,0,1,.41.29s0,0,0,0,0,0,0,0l-.28.16a5.71,5.71,0,0,1-.6.22,6,6,0,0,1-.64.16,6.46,6.46,0,0,1-2.33-.1l-1-.3-.81.53a3.1,3.1,0,0,0-.49.36,7.25,7.25,0,0,1,3.1-.17,1.41,1.41,0,0,1,.82.39,2.12,2.12,0,0,1-.72.41,5,5,0,0,1-2,.42H12.5a8.47,8.47,0,0,1-1.73-.3l-.54.45-.55.49c.19-.06.49-.17.84-.26a6.92,6.92,0,0,1,2-.21,2,2,0,0,1,.7.14.66.66,0,0,1,.2.11l0,0a4.21,4.21,0,0,1-1.94,1,6.19,6.19,0,0,1-2.77.09c-.2.2-.43.43-.63.66s-.37.43-.53.64c.29-.11.55-.26.88-.39A5.32,5.32,0,0,1,11,10.22a1.24,1.24,0,0,1,.45.14,2.24,2.24,0,0,1-.51.51A6.18,6.18,0,0,1,6.83,12c-.36.54-.78,1-1.09,1.63l.71-.44a5,5,0,0,1,1.1-.47,3.29,3.29,0,0,1,2.1-.18,3.76,3.76,0,0,1-.91.92,4.78,4.78,0,0,1-1.35.71,6.81,6.81,0,0,1-1.08.29,5.78,5.78,0,0,1-1.1.11,6.34,6.34,0,0,0-.47.87c-.14.3-.28.57-.32.7.18-.13.37-.31.58-.46a7.18,7.18,0,0,1,1.79-.92,2.45,2.45,0,0,1,1.44-.14v0a4.89,4.89,0,0,1-2.65,2.09L4.52,17,4,17.05c0,.07-.12.34-.2.64-.15.56-.33,1.28-.38,1.49L4,18.49a5.06,5.06,0,0,1,.79-.72,5.56,5.56,0,0,1,1.91-1h.39a1.24,1.24,0,0,1-.15.42c-.13.24-.3.46-.42.65a5.86,5.86,0,0,1-2.43,1.85,5.14,5.14,0,0,1-.8.29,7.77,7.77,0,0,0-.18,1.15c0,.48-.11,1-.12,1.28H3a3.32,3.32,0,0,1,.34-.72,6.87,6.87,0,0,1,1.7-1.9,1.79,1.79,0,0,1,1.07-.5A2.74,2.74,0,0,1,6,19.9a5.2,5.2,0,0,1-1.12,1.86,7,7,0,0,1-1.16,1A4.43,4.43,0,0,1,3,23.2c0,.35,0,.89,0,1.41a7,7,0,0,0,.06,1l0,0a3.41,3.41,0,0,1,.26-.83,6.43,6.43,0,0,1,1.84-2.55A1.52,1.52,0,0,1,5.52,22L5.74,22h0a5,5,0,0,1-1.4,3.24,5.64,5.64,0,0,1-.53.55l-.69.55s0,.12,0,.24,0,.3,0,.37c.1.51.21,1,.31,1.53l.21-1a6.47,6.47,0,0,1,.46-1.09q.15-.3.33-.6a1.49,1.49,0,0,1,.12-.14,2.4,2.4,0,0,1,1.12-1,1.57,1.57,0,0,1,0,.45,3.74,3.74,0,0,1-.12,1,6.14,6.14,0,0,1-1,2c-.16.22-.29.37-.5.62-.08.1-.18.19-.28.3a1,1,0,0,1-.2.16,10.31,10.31,0,0,0,.36,1.07,6.1,6.1,0,0,0,.5,1.17v0c0-.25,0-.49,0-.74s0-.32,0-.48A8.85,8.85,0,0,1,5,28.55a2.54,2.54,0,0,1,1-1.46,3.82,3.82,0,0,1,.19,1.08,6,6,0,0,1-.77,3L4.89,32a12,12,0,0,0,.63,1.1,6.14,6.14,0,0,0,.5.72v0H6a6.46,6.46,0,0,1-.1-1.25,2.67,2.67,0,0,1,0-.4c0-.3.09-.72.16-1.08A4.26,4.26,0,0,1,6.47,30a1.13,1.13,0,0,1,.39-.46l0,0a4.9,4.9,0,0,1,.35,2.67,6.74,6.74,0,0,1-.75,2.27A14.61,14.61,0,0,0,8,36.1a6.58,6.58,0,0,1-.15-4.29,1.6,1.6,0,0,1,.25-.4l.08-.07A5.07,5.07,0,0,1,8.77,35a7.15,7.15,0,0,1-.22.94c-.07.21-.13.34-.19.54a5.74,5.74,0,0,0,.82.7c.31.24.62.48.85.62-.09-.2-.18-.36-.26-.54a5.32,5.32,0,0,1-.32-1A6.16,6.16,0,0,1,9.38,34c0-.24.09-.48.14-.71l0,0c.16.24.33.48.49.73a7.11,7.11,0,0,1,.82,3.32,3.59,3.59,0,0,1-.12.88l2,1.09-.6-.76a5.53,5.53,0,0,1-.64-1.43,6.1,6.1,0,0,1-.31-1.93h0a5.46,5.46,0,0,1,1.78,2.16c.12.25.21.5.32.77s.13.33.2.58a2.2,2.2,0,0,1,.08,1l.81.31,1.21.36Zm10.14-38v0a5.63,5.63,0,0,0-1.35-.13l-1,.08c-.32.07-.61.15-.9.23a3,3,0,0,1-.39.13,1.78,1.78,0,0,0,.64.12,5.22,5.22,0,0,0,2.15-.1,2.82,2.82,0,0,0,.79-.31Zm-.43,37.2v0l-.56-.31a6.61,6.61,0,0,0-2.85-.68,3.57,3.57,0,0,0,.94.51A5.34,5.34,0,0,0,25.32,39.57Zm-1,1.84a3.69,3.69,0,0,0,.65-.89l-.74.38a5.37,5.37,0,0,0-1.57,1.39,2,2,0,0,0-.36.56l0,0A6.46,6.46,0,0,0,24.34,41.41ZM22.83,4.11v0c-.22-.07-.39-.17-.61-.24a7.51,7.51,0,0,0-2.32-.32l-.63.08.51.22a5.33,5.33,0,0,0,2,.4A5.86,5.86,0,0,0,22.83,4.11ZM22.24.46l-.69.36A7.83,7.83,0,0,0,20,2.16a2.79,2.79,0,0,0-.48.69A5.78,5.78,0,0,0,21.76,1.2,5.22,5.22,0,0,0,22.1.75l0-.05A.44.44,0,0,0,22.24.46Zm.1,40.09a3.68,3.68,0,0,0-.89-.78,7,7,0,0,0-2.26-1,5.18,5.18,0,0,0,1,.88A4.89,4.89,0,0,0,22.34,40.55Zm-.45.65h-.06l-.88.33a4.57,4.57,0,0,0-2,1.68,6.34,6.34,0,0,0,1.73-.86A5.52,5.52,0,0,0,21.89,41.2ZM19.93,5l0,0-.45-.15a7.19,7.19,0,0,0-1.94-.25l-.48,0-.74.13a2.56,2.56,0,0,0,.59.2,5.42,5.42,0,0,0,1.83.25,4.64,4.64,0,0,0,.64-.07C19.58,5.06,19.73,5,19.93,5Zm-.67,35.77v0A5.5,5.5,0,0,0,18,39.29a4.59,4.59,0,0,0-1.46-.89,5.54,5.54,0,0,0,1.21,1.43A4.19,4.19,0,0,0,19.26,40.74ZM18.77,1.46c0-.09.1-.2.09-.26l-.58.41-.15.13a6.29,6.29,0,0,0-.93,1,4,4,0,0,0-.63,1.19A3.44,3.44,0,0,0,17.68,3,7.17,7.17,0,0,0,18.49,2,4.27,4.27,0,0,0,18.77,1.46Zm-.42,40,0-.07h-.07l-1.07.17A4.72,4.72,0,0,0,15,42.68,6.71,6.71,0,0,0,17.53,42ZM17.23,6h0c-.18,0-.31-.1-.5-.14a8.25,8.25,0,0,0-1.64-.12l-.66.06-.84.2a2.87,2.87,0,0,0,.63.18c.27,0,.5.09.79.12s.55,0,.78,0,.3,0,.43,0l.67-.15C17,6.07,17.1,6,17.23,6ZM15.37,3.11c.05-.12.38-.77.31-.86l-.54.5c-.18.21-.38.42-.56.65A4.5,4.5,0,0,0,14,4.47a3.24,3.24,0,0,0-.25.78,1.51,1.51,0,0,0,.44-.37A7.91,7.91,0,0,0,15.37,3.11ZM15,39.3a3.77,3.77,0,0,0,1.13.93,5.89,5.89,0,0,0-2.27-2.82A5.33,5.33,0,0,0,15,39.3Zm0-32,0,0c-.19,0-.27-.06-.46-.08a8.4,8.4,0,0,0-1-.06l-.89.09a5.45,5.45,0,0,0-.58.14l-.35.1-.3.1a1.9,1.9,0,0,0,.62.12,5.38,5.38,0,0,0,2.25-.12C14.51,7.52,14.69,7.41,14.94,7.33Zm0,33.45v0H13.87l-.51,0a3.57,3.57,0,0,0-.71.14,4.77,4.77,0,0,0-.8.32c-.15.08-.27.16-.44.24a.43.43,0,0,1,0,0,4.91,4.91,0,0,0,.54,0,6.75,6.75,0,0,0,2.14-.39Zm-1.72-1.54a3.65,3.65,0,0,0-.32-1.19,6.71,6.71,0,0,0-1.29-2A5.5,5.5,0,0,0,13.19,39.24ZM12.68,4a.91.91,0,0,0,0-.36c-.11.16-.23.27-.34.42a5.91,5.91,0,0,0-1,1.9,4,4,0,0,0-.17,1,2.6,2.6,0,0,0,.48-.58,7.93,7.93,0,0,0,.82-1.72A4.93,4.93,0,0,0,12.68,4Zm0,4.69h.05a.69.69,0,0,0-.32,0h-.59l-.67.08a6.47,6.47,0,0,0-1.93.65h0a1.27,1.27,0,0,0,.42,0,6.75,6.75,0,0,0,.68,0c.28,0,.55-.05.79-.09A4.29,4.29,0,0,0,12.68,8.7Zm-.69,31h0c-.26-.05-.47-.15-.72-.21a7.19,7.19,0,0,0-1.7-.17L9,39.38l-.67.19a4.09,4.09,0,0,0,1.38.31,5.3,5.3,0,0,0,1.25,0ZM10.72,10.57l0,0h-.43l-.83.13a6.8,6.8,0,0,0-2.17.92l0,0a1.05,1.05,0,0,0,.36,0,5.57,5.57,0,0,0,.73-.09A5.47,5.47,0,0,0,10.09,11Zm-.25,27.18a6.5,6.5,0,0,0-.33-2.65,3.7,3.7,0,0,0-.41-.89,6.09,6.09,0,0,0,.3,2.7c.13.28.27.55.41.83ZM10.13,6.21a3.52,3.52,0,0,0,0-1c-.13.2-.26.41-.38.62s-.12.24-.18.37a5.54,5.54,0,0,0-.5,2.47,3,3,0,0,0,.51-.89A12,12,0,0,0,10.13,6.21ZM9.19,37.84v0c-.29-.08-.53-.2-.81-.28a6.52,6.52,0,0,0-2-.24,2,2,0,0,0-.79.15,6.06,6.06,0,0,0,1.09.36l1.14.14c.09,0,.21,0,.3,0C8.5,37.94,8.84,37.86,9.19,37.84ZM9,12.73H8.92l-.58.09a6.17,6.17,0,0,0-.61.19c-.2.06-.42.15-.62.22l-1,.53-.43.31-.07.08A5.24,5.24,0,0,0,6.55,14a6.12,6.12,0,0,0,1.57-.6l.69-.49ZM8.43,34.85a5.16,5.16,0,0,0-.12-2.3c-.05-.17-.06-.38-.18-.48a7.12,7.12,0,0,0-.21,1.7,4.51,4.51,0,0,0,0,.52c0,.23.07.5.12.71s.12.43.16.66a.05.05,0,0,1,0,0ZM7.78,8.37c0-.13,0-.3,0-.51s0-.34,0-.48a.13.13,0,0,0,0-.06h0l-.36.79a5.6,5.6,0,0,0-.31,2.76,3.89,3.89,0,0,0,.44-1A6.16,6.16,0,0,0,7.78,8.37Zm-.19,6.52h-.1L6.94,15l-.5.21-.65.3a5,5,0,0,0-.58.4l-.49.36-.3.31a4.51,4.51,0,0,0,1.23-.36A4.6,4.6,0,0,0,7.59,14.89ZM6.65,33.15a4.75,4.75,0,0,0,.23-2.4c0-.17,0-.38-.12-.5-.06.19-.13.34-.19.56a6.16,6.16,0,0,0-.28,1.83,3.76,3.76,0,0,0,0,.58c0,.2,0,.4.08.59v0h0C6.49,33.63,6.58,33.39,6.65,33.15Zm.25,2.76v0l-.7-.4a6.28,6.28,0,0,0-1.73-.57,4.74,4.74,0,0,0-1-.05l0,0a2.37,2.37,0,0,0,.57.34A7.06,7.06,0,0,0,6.9,35.91ZM6.52,17.2h0l-.71.35a7.09,7.09,0,0,0-1.42,1.11,4.4,4.4,0,0,0-.4.46,1.91,1.91,0,0,0-.24.34,4.83,4.83,0,0,0,.84-.39A4.92,4.92,0,0,0,6.52,17.2Zm-.7,11.65a2.34,2.34,0,0,0,0-.56,1.55,1.55,0,0,0,0-.52l-.35.65a7,7,0,0,0-.51,2.87,4.93,4.93,0,0,0,.66-1.43A7.9,7.9,0,0,0,5.82,28.85ZM5.57,12.58a5.26,5.26,0,0,0,.11-2.42,1.54,1.54,0,0,0-.17-.56,6.75,6.75,0,0,0-.33,1.83,5.6,5.6,0,0,0,0,.58,7.39,7.39,0,0,0,.13.86c0,.12.06.24.07.36h0C5.44,13,5.52,12.8,5.57,12.58Zm-.06,7.58a.81.81,0,0,0,.12-.36l-.53.38c-.1.08-.2.2-.32.32s-.35.34-.52.53a5.78,5.78,0,0,0-.62.9,2.82,2.82,0,0,0-.32.66,5.91,5.91,0,0,0,1.91-1.91A4,4,0,0,0,5.51,20.16ZM5.39,25.6a1.18,1.18,0,0,0,0-.37c-.13.19-.3.32-.44.54a6.55,6.55,0,0,0-1.1,2.74,5.23,5.23,0,0,0,.49-.58,6.42,6.42,0,0,0,.88-1.73A4.47,4.47,0,0,0,5.39,25.6Zm-.32-2.15c0-.13.33-.78.24-.89L4.83,23a7.19,7.19,0,0,0-1.24,2.05,4.42,4.42,0,0,0-.17.55A5.23,5.23,0,0,0,4.09,25,5.76,5.76,0,0,0,5.07,23.45Zm0,10.22A3.84,3.84,0,0,0,4.23,33a5,5,0,0,0-2.48-.82,2.53,2.53,0,0,0,.64.49A7.12,7.12,0,0,0,5.07,33.67Zm-1-18.45a7.05,7.05,0,0,0,0-1.59,3.34,3.34,0,0,0-.45-1.41c0,.21-.08.42-.09.64a8.35,8.35,0,0,0,.14,2,3,3,0,0,0,.3.91v0A1.85,1.85,0,0,0,4.06,15.22Zm-1,3.61a7.28,7.28,0,0,0-.22-1.91,5.11,5.11,0,0,0-.69-1.6,6.81,6.81,0,0,0,.36,2.52,1.8,1.8,0,0,1,.08.21c.16.31.27.5.43.77ZM2,30.1A5.64,5.64,0,0,0,3.8,31.16,5.32,5.32,0,0,0,.93,29,4.4,4.4,0,0,0,2,30.1Zm.87-2a2.12,2.12,0,0,0-.24-.51l-.19-.32a5.19,5.19,0,0,0-2-1.87,6.39,6.39,0,0,0,.75,1.21A5.89,5.89,0,0,0,2.86,28.13Zm-.33-6.22h0a5.9,5.9,0,0,0-.8-2.68,3,3,0,0,0-.55-.71A7.39,7.39,0,0,0,2,21.07a4.36,4.36,0,0,0,.56.81ZM2.4,25a6.32,6.32,0,0,0-1-2.35,3.44,3.44,0,0,0-.78-.79,4.75,4.75,0,0,0,.51,1.41A5.72,5.72,0,0,0,2.4,25Z" transform="translate(-0.02 -0.02)"/><path class="cls-1" d="M26.33,7.28c0,.43,0,.86,0,1.28H26a2.91,2.91,0,0,0-.12-.71.56.56,0,0,0-.2-.26,2,2,0,0,0-.4-.15h-.05c-.11.94-.21,1.88-.32,2.82a.56.56,0,0,0,.43.14c0,.08,0,.19,0,.27a5.37,5.37,0,0,1-.61-.07c-.41-.05-.88-.11-1-.11l0-.27H24c.19-.1.13-.51.18-.77l.24-2.11a.92.92,0,0,0-.5.08,1.18,1.18,0,0,0-.48.84l-.3-.05c.07-.41.15-.83.23-1.25Z" transform="translate(-0.02 -0.02)"/><path class="cls-1" d="M25.34,33.24a.8.8,0,0,1,0,.31c-.17,1.08-1.54,1.51-2.55,1.52a6,6,0,0,1-1.12-.14l-.3-.9.27-.1a2,2,0,0,1,.31.33,1.7,1.7,0,0,0,.3.23c.69.4,1.84.2,2-.54a.86.86,0,0,0-.09-.54,1.35,1.35,0,0,0-1.44-.49,4.88,4.88,0,0,0-.68.24c-.07,0-.12,0-.2,0,0-.32,0-.55,0-.89a10.72,10.72,0,0,0-.05-1.52l.05-.05c.53,0,1.07,0,1.62,0s1.07,0,1.59,0a1.2,1.2,0,0,1,0,.46,1.36,1.36,0,0,0,0,.29H22.4c0,.34,0,.67,0,1l.49-.13.41-.07a3.53,3.53,0,0,1,.46,0C24.5,32.24,25.24,32.56,25.34,33.24Z" transform="translate(-0.02 -0.02)"/><path class="cls-1" d="M24.94,16.47c0,.38,0,.85,0,1.14v4a3.49,3.49,0,0,1-.16,1.7,1.09,1.09,0,0,1-.48.36,3.58,3.58,0,0,1-.88.07,3.43,3.43,0,0,1-1-.07c-.42-.17-.62-.63-.86-1-.38-.54-.74-1.11-1.1-1.67l-.6-.91h0c0,.31,0,.62,0,.94,0,.08.13.16.23.26.25.26.63.56.79.76-.07.1-.14.21-.22.31l0,0c-.18-.21-.67-.62-.95-.92-.09-.09-.18-.15-.2-.22,0-.76,0-1.51,0-2.27l.1,0,2,3c.16.24.38.57.58.84a1.45,1.45,0,0,0,.43.48,1.47,1.47,0,0,0,.67.09,3.6,3.6,0,0,0,.67,0,1,1,0,0,0,.39-.16c.33-.25.23-1,.23-1.6,0-1.28,0-2.55,0-3.83,0-.3,0-.72,0-1.06a.91.91,0,0,0-.1-.47.58.58,0,0,0-.41-.22,3.44,3.44,0,0,0-.57,0h-.91c.09-.13.18-.25.26-.38.47,0,1,0,1.43,0a.81.81,0,0,1,.55.25.49.49,0,0,1,.13.25A2.53,2.53,0,0,1,24.94,16.47Z" transform="translate(-0.02 -0.02)"/><path class="cls-1" d="M24.25,16.73c0,.3,0,.7,0,.95v3.81c0,.43.11,1.27-.15,1.46a1.55,1.55,0,0,1-.68.11,1.87,1.87,0,0,1-.7-.07,1.43,1.43,0,0,1-.36-.45l-1.95-2.82L19.94,19c-.15-.22-.26-.41-.39-.47s-.13,0-.2,0a.85.85,0,0,0-.13.27c0,.47,0,.92,0,1.39s0,.76,0,1.14a3.55,3.55,0,0,0,.4.43c.33.33.75.75.86.83l-.24.38a13.87,13.87,0,0,1-1.91,0,.35.35,0,0,1-.23-.11,5.73,5.73,0,0,1,0-1,7.61,7.61,0,0,1,0-.89c0-.73,0-1.46,0-2.19a12.62,12.62,0,0,0,0-1.47.46.46,0,0,0-.16-.26c-.13-.15-.37-.15-.75-.15,0-.26,0-.51,0-.76h1.71a3.25,3.25,0,0,1,.92.11c.29.12.43.47.6.71.41.6.83,1.19,1.25,1.78l1,1.47c.1.15.22.51.53.4.09,0,.18-.08.19-.2a8.72,8.72,0,0,0,0-1.11c0-.4,0-.81,0-1.22a3.17,3.17,0,0,0-.55-.63,7.86,7.86,0,0,0-.75-.71l.14-.22.2-.31s0,0,0,0,.3,0,.48,0,.77,0,1,0a.34.34,0,0,1,.17.06,1.15,1.15,0,0,1,.1.08A.53.53,0,0,1,24.25,16.73Z" transform="translate(-0.02 -0.02)"/><path class="cls-1" d="M23.55,47.73l.06.22-1.47.45c0-.08,0-.16-.07-.25.13,0,.27-.07.32-.18a.56.56,0,0,0-.05-.32c-.06-.15-.12-.32-.15-.42-.2-.63-.41-1.26-.61-1.9a.49.49,0,0,0-.41,0h0l-.06-.26,1.45-.47h.05a.64.64,0,0,0,.07.21v0s0,0-.06,0a.45.45,0,0,0-.28.16,3.41,3.41,0,0,0,.2.8c.17.52.37,1.14.43,1.3s.08.5.25.59a.51.51,0,0,0,.32-.05h0Z" transform="translate(-0.02 -0.02)"/><path class="cls-1" d="M23.36,10.44h-.27s0,0,0,0h-.92s0,0,0,0l-.13,0s0,0,0,0h-.26v-.27H22a.67.67,0,0,0,.19-.05,2.27,2.27,0,0,0,.05-.8c0-.34,0-.77,0-1.2a4.29,4.29,0,0,0-.06-.85,1,1,0,0,0-.36,0V7l1.53,0v.26h-.23a.3.3,0,0,0-.14,0s0,.11,0,.2,0,.4,0,.5,0,.55,0,.9A4.8,4.8,0,0,0,23,10.15l.13,0h.23C23.35,10.27,23.35,10.36,23.36,10.44Z" transform="translate(-0.02 -0.02)"/><path class="cls-1" d="M23.08,19.44c0,.27,0,.5,0,.76v0s0,0,0,0-.08,0-.12,0c-.18-.21-.53-.79-.65-.95-.68-1-1.32-1.92-2-2.89l-.17-.21c-.3-.23-.6-.23-1.25-.23H17.82l-.66,0c-.05,0,0-.25,0-.36h1.74a3.56,3.56,0,0,1,1.29.13c.39.19.57.62.81,1l.55.78,1.16,1.69a2.7,2.7,0,0,0,0-.59,1.48,1.48,0,0,0-.1-.27l-.92-.9.18-.27.08-.06L23,18.16a1.46,1.46,0,0,1,0,.43C23.08,18.89,23.08,19.27,23.08,19.44Z" transform="translate(-0.02 -0.02)"/><path class="cls-1" d="M22,48.46v0l-2.8.63s-.06,0-.08,0a10.94,10.94,0,0,1-.35-1.2l.28-.08c.08.18.14.28.19.39s.21.41.62.44a2.44,2.44,0,0,0,.26,0l0,0c-.16-.69-.31-1.38-.46-2.07-.06-.23-.06-.62-.24-.73a.65.65,0,0,0-.39,0c0-.09,0-.18,0-.27l1.63-.34c0,.08,0,.16.05.24a.73.73,0,0,0-.4.17,2.11,2.11,0,0,0,.14.74c.15.69.29,1.37.44,2.06.75-.08.67-.76.66-1.19l.28,0C21.88,47.63,21.94,48.05,22,48.46Z" transform="translate(-0.02 -0.02)"/><path class="cls-1" d="M21.93,7.91a1.15,1.15,0,0,1-.1.69,1.47,1.47,0,0,1-.85.51c-.15.05-.28.07-.44.11h0c.08.34.15.67.23,1,.12.08.26,0,.43,0,0,.08,0,.17,0,.26L20,10.79l-.41.05-1.32.41c0-.08,0-.15-.07-.23l.32-.16s0-.06,0-.09l-.39-.61a.76.76,0,0,0-.41.08c-.23.07-.48.16-.65.2a3.1,3.1,0,0,0,0,.76l.07,0c.12.06.27,0,.38,0a2.68,2.68,0,0,0,.07.27c-.3,0-1.06.41-1.27.33a1.56,1.56,0,0,1-.63.46,1.62,1.62,0,0,1-2.24-1,1.83,1.83,0,0,1-.18-1.07,1.73,1.73,0,0,1,1.61-1.38L15,8.71c.11-.05.14-.15.24-.22l.57,1.13-.27.13c-.18-.17-.3-.39-.54-.51a.94.94,0,0,0-.66,0,.72.72,0,0,0-.44.41,2.06,2.06,0,0,0,.31,1.48,1.68,1.68,0,0,0,.89.83c.62.19,1.13-.39,1.13-1v-.08a.65.65,0,0,0,0-.14h0l.3,0v0h0a4.29,4.29,0,0,1,0,.5.78.78,0,0,1-.06.28,2.25,2.25,0,0,0,.22-1.22c0-.81.12-1.79.15-2.2l.39-.16,1.49,2,.29.42a1.11,1.11,0,0,0,.3.31c.06,0,.17,0,.26,0a1,1,0,0,0,.33-.07c.12-.2,0-.55-.08-.79l-.45-2s0,0-.06,0a1.12,1.12,0,0,0-.31,0c0-.09,0-.18-.05-.26l1.73-.36a1.79,1.79,0,0,1,.75.08A.9.9,0,0,1,21.93,7.91Zm-.79.67a1,1,0,0,0-.27-1.1.68.68,0,0,0-.41-.09l-.33.07c.1.48.21,1,.31,1.45v0C20.8,8.89,21,8.8,21.14,8.58ZM17.85,9.86a2.56,2.56,0,0,0-.31-.42c-.16-.22-.33-.47-.41-.55l-.08,1.21Z" transform="translate(-0.02 -0.02)"/><path class="cls-1" d="M21.1,32.12a2.78,2.78,0,0,1-.16,1.26,2.29,2.29,0,0,1-.82,1l-.14.1a2.82,2.82,0,0,1-.92.44,3.39,3.39,0,0,1-1.21.18c-.14,0-.25-.13-.39-.18l0,0,.07-.08a1.29,1.29,0,0,1,.4,0,1.91,1.91,0,0,0,.49,0,1.7,1.7,0,0,0,1.27-1,5.46,5.46,0,0,0,.21-.68v-.09h0l-.68.42a2.32,2.32,0,0,1-.63.08,1.26,1.26,0,0,1-1.38-1.63,1.56,1.56,0,0,1,1.14-1.07l.57-.1a3.17,3.17,0,0,1,1.07.1,2,2,0,0,1,.49.25,1.8,1.8,0,0,1,.48.55A1.46,1.46,0,0,1,21.1,32.12Zm-1.53.64c.35-.11.44-.71.3-1.17a.87.87,0,0,0-1-.63l-.2.06a.61.61,0,0,0-.28.21,1,1,0,0,0-.17.61,1.18,1.18,0,0,0,.21.7A1,1,0,0,0,19.57,32.76Z" transform="translate(-0.02 -0.02)"/><path class="cls-1" d="M20,23.32h0l-.2.37-.94,0a5.68,5.68,0,0,1-.93,0,.56.56,0,0,1-.38-.23,3.49,3.49,0,0,1-.2-1.78l0-4H17.1c0-.14,0-.28,0-.41.28,0,.4,0,.5.05s.08.07.08.08a1,1,0,0,1,.08.55v.85c0,1.14,0,2.23,0,3.37,0,.25,0,.54,0,.8a.55.55,0,0,0,.23.31,2.32,2.32,0,0,0,.76.09Z" transform="translate(-0.02 -0.02)"/><path class="cls-1" d="M18.91,49.19l-1.55.08a2.46,2.46,0,0,0,0-.26l.29-.07.05,0a.86.86,0,0,0-.21-.4l-.3-.43a2.8,2.8,0,0,1-.2-.32l0,0a4.85,4.85,0,0,1-.4.74,1.12,1.12,0,0,0-.17.46.53.53,0,0,0,.41.1c0,.09,0,.18,0,.27l-1.31.06a2,2,0,0,1,0-.25l.36-.13a7.06,7.06,0,0,0,.68-1.07c.08-.16.16-.27.21-.36a.45.45,0,0,0,.05-.1,2,2,0,0,0,0-.48,7,7,0,0,0-.09-.81.77.77,0,0,0-.43-.06c0-.09,0-.18,0-.26l1.63-.09a2.45,2.45,0,0,0,0,.27l-.37,0a.45.45,0,0,0-.06.14c0,.11,0,.26,0,.4a2.69,2.69,0,0,0,0,.52.48.48,0,0,0,0,.16l.14.18L18,48a9.41,9.41,0,0,0,.66.91l.13,0,.15,0A2.28,2.28,0,0,1,18.91,49.19Z" transform="translate(-0.02 -0.02)"/><path class="cls-1" d="M17,4.23Z" transform="translate(-0.02 -0.02)"/><path class="cls-1" d="M16.77,16.4c0,.25,0,.54,0,.78v.88l-.41.26a2,2,0,0,1,0-.66,3.69,3.69,0,0,0-.14-1.61c-.11-.14-.56-.17-1-.17a9,9,0,0,0-1,0l-.3,0a2.85,2.85,0,0,0-.72.12,3.74,3.74,0,0,0-2.67,3.28,3.11,3.11,0,0,0,.06,1.07,3.67,3.67,0,0,0,2.64,3,3.46,3.46,0,0,0,1.38.08l.4-.07a3.35,3.35,0,0,0,1.48-.71c.14.06.2.23.28.33a1.85,1.85,0,0,1-.68.44,4.79,4.79,0,0,1-2.33.44,3.32,3.32,0,0,1-.55-.09,4.29,4.29,0,0,1-2.42-1.68,4.37,4.37,0,0,1,1.09-5.87,3.09,3.09,0,0,1,.64-.36c.19-.07.39-.17.58-.22s.53-.08.86-.14l.69,0c.86,0,1.85-.07,2.07.56A1.2,1.2,0,0,1,16.77,16.4Z" transform="translate(-0.02 -0.02)"/><path class="cls-1" d="M16.7,34.72c.06,0,.06.12.05.23H13.27s0-.13,0-.21c.28-.13,1,0,1.12-.22a1.12,1.12,0,0,0,.08-.51V31.89c0-.2,0-.4,0-.6-.28-.12-1.07.34-1.42.38h0c0-.14-.07-.27-.1-.4v-.05a5.84,5.84,0,0,0,.81-.17l1.05-.26.89-.23.14.05c-.07.68-.07,1.41-.09,2.18v.87c.05.29-.08.71.05.92S16.46,34.63,16.7,34.72Z" transform="translate(-0.02 -0.02)"/><path class="cls-1" d="M16.39,22.42a2.54,2.54,0,0,1-.7.42,2.41,2.41,0,0,1-.89.31A3.5,3.5,0,0,1,13.09,23a3.41,3.41,0,0,1-1.17-.71,3.13,3.13,0,0,1-.86-1.46,7.46,7.46,0,0,1-.16-.93A2.9,2.9,0,0,1,11,18.67a3.59,3.59,0,0,1,2.14-2.28l.41-.11L14,16.2h.93a2.79,2.79,0,0,1,1,.1.33.33,0,0,1,.12.23,16.59,16.59,0,0,1,0,2l-.72.46c-.26-.32-.47-.7-.72-1.06a2.3,2.3,0,0,0-.5-.61.8.8,0,0,0-.5-.16,1.58,1.58,0,0,0-.9.28,1.42,1.42,0,0,0-.53.66,1,1,0,0,0,.16.92c.15.26.35.56.47.73s.39.67.68,1.06a6.77,6.77,0,0,0,.74,1,1,1,0,0,0,.49.25,1.45,1.45,0,0,0,1.05-.35Z" transform="translate(-0.02 -0.02)"/><path class="cls-1" d="M15.4,21.09l.23.3a.89.89,0,0,1-1.1.2,2.63,2.63,0,0,1-.51-.68c-.39-.55-.76-1.12-1.13-1.7-.13-.21-.44-.52-.41-.86,0-.54.48-.7.89-.89a1.08,1.08,0,0,1,.58.1,4.37,4.37,0,0,1,.5.62,11.09,11.09,0,0,1,.67,1l-.3.18,0,0-1.09-1.5c-.28-.21-.72.13-.81.34s.35.79.47,1l1,1.52c.12.18.24.5.46.59S15.27,21.18,15.4,21.09Z" transform="translate(-0.02 -0.02)"/><path class="cls-1" d="M14.4,5.41h0Z" transform="translate(-0.02 -0.02)"/><path class="cls-1" d="M62.15,11s-.81.15-1.08.22a3,3,0,0,1-.63.12,1,1,0,0,0-.26,0c-.1,0-.15-.07-.15-.13a1.07,1.07,0,0,0,0-.31.66.66,0,0,1-.09-.19c0-.07,0-.07-.08-.16a1.58,1.58,0,0,1-.17-.41c0-.16,0-.08-.06-.13s-.09-.1-.12-.27-.29-.19-.33-.2a.79.79,0,0,0-.25-.05,1.2,1.2,0,0,0-.37.1,3.28,3.28,0,0,0-.48.46,3,3,0,0,0-.45,1,.84.84,0,0,1,0,.18,1,1,0,0,0-.09.36,1.42,1.42,0,0,0,0,.51c.06.1,0,.16,0,.2s0,.21.06.28a3.47,3.47,0,0,0,.21.54c.06.1.11.29.18.34s.06.15.09.21.14.3.15.35.05.06.09.07a5.34,5.34,0,0,0,.49.28c.06,0,.11.08.17.09a.69.69,0,0,0,.26,0s.17-.06.22,0a1.17,1.17,0,0,0,.29,0c.07,0,0,.07.06.1a.22.22,0,0,0,.19.08.69.69,0,0,1,.2,0c.06,0,.27,0,.3,0a.22.22,0,0,1,.16-.12c.07,0,.19-.18.22-.23a1,1,0,0,1,.27-.22c.07,0,.14,0,.19,0s.18-.1.18-.18a.43.43,0,0,1,.07-.2c0-.07.09-.14.12-.2s.08-.12.07-.17a.08.08,0,0,1,.07-.08s-.11,0-.13,0-.15-.12-.12-.16a.48.48,0,0,1,.29-.13.15.15,0,0,1-.09-.11.74.74,0,0,1,0-.27.76.76,0,0,1,.13-.17s.47-.38.55-.41.23-.23.45-.26c0,0-.06,0-.06-.05s0-.1.06-.1-.15,0-.08-.1a.57.57,0,0,0,.13-.16.24.24,0,0,1,.17,0s-.13,0-.13-.09,0-.14-.09-.16-.17,0-.25,0S62.39,11,62.15,11Z" transform="translate(-0.02 -0.02)"/><path class="cls-1" d="M75.34,19.6c-.06,0-.14-.08-.09-.11s0-.14,0-.17,0-.05.09-.08.18,0,.18,0l-.18-.08a.31.31,0,0,1-.14-.09.16.16,0,0,1,.11-.1c.06,0,0,0,0,0s0-.13,0-.18,0-.11,0-.12,0-.1,0-.14a.46.46,0,0,1,.07-.23c0-.06.05-.1,0-.13s-.05-.05,0-.11a.3.3,0,0,0,.09-.2.4.4,0,0,0-.16-.21c-.07-.05,0-.08,0-.09s0,0,0-.09.13,0,.13,0a1.14,1.14,0,0,0-.16-.16c-.06-.05.09-.11,0-.19s0-.13-.11-.22,0-.18-.19-.25-.18-.16-.28-.21a1.21,1.21,0,0,0-.36-.18c-.08,0-.35-.11-.45-.13s-.58-.2-.78-.24L72,15.55c-.26-.08-1.4-.32-1.62-.36s-.66,0-.9-.07-1.06,0-1.18,0-.13,0-.19,0a4.07,4.07,0,0,1-.77.09,2,2,0,0,1-.56-.08s.15-.16.24-.21.45-.42.53-.46.07-.12.15-.14.35-.44.48-.57.59-.75.64-.83.23-.55.34-.59.14-.21.5-.3a4.09,4.09,0,0,0,1.2-.74.72.72,0,0,1,.53-.22c.13,0,.37-.2.43-.27a2.91,2.91,0,0,0,.11-.56c0-.15.07-.1.06-.25a6,6,0,0,0,0-.6c0-.1-.09-.15-.06-.31a1.91,1.91,0,0,0-.07-.48,1.17,1.17,0,0,0-.39-.6c-.16-.11-.4-.35-.55-.45a.4.4,0,0,0-.25-.1c-.07,0-.1.07-.21,0a.27.27,0,0,0-.23,0l-.2.14a.73.73,0,0,0-.21.23,2.06,2.06,0,0,1-.26.25s-.18,0-.2,0-.1.13-.14.16-.1,0-.12,0a.41.41,0,0,0-.16.1.68.68,0,0,1-.19.19,3.07,3.07,0,0,0-.35.24L68.18,9a.65.65,0,0,0-.17.27c0,.08-.27.35-.29.41s-.42.41-.49.5a1.87,1.87,0,0,0-.25.3.22.22,0,0,1-.09.08.1.1,0,0,0,0,.1c0,.07-.27.29-.42.4s-.72.68-.77.74a1.62,1.62,0,0,0-.3.33,7.21,7.21,0,0,1-.82.77c-.21.2-1.12,1-1.21,1.1a1.94,1.94,0,0,0-.3.33,10.9,10.9,0,0,1-.9.72.78.78,0,0,0-.18.13,1.36,1.36,0,0,1-.32.23.82.82,0,0,0-.23.14l-.28.33S61,16,61,16s-.09.08-.13.09a.4.4,0,0,1-.11,0c-.06,0-.06.07-.08.11a1.2,1.2,0,0,1-.34.08.65.65,0,0,1-.25,0s0,.12,0,.15-.13,0-.16,0,0,.06,0,.1,0,.07-.11.08a.29.29,0,0,1-.16,0,.15.15,0,0,0-.12.07.23.23,0,0,1-.19.09,1,1,0,0,0-.32.1.38.38,0,0,1-.22.09c-.1,0,0-.06,0-.09s0,0-.08.07-.06,0-.14,0a.37.37,0,0,0-.11.1.19.19,0,0,1-.14,0s0-.08,0-.12,0,0-.07-.07-.09.06-.14.06a.33.33,0,0,0-.19.09.92.92,0,0,1-.28.09,1,1,0,0,1-.23,0,.71.71,0,0,0-.2,0l-.21.06a.23.23,0,0,1-.14,0c-.06,0-.11,0-.12,0s0,.08-.06.1,0-.05-.09-.05-.16.1-.22.12-.17,0-.11.06,0,0,0,.07,0,.11-.08.11-.08,0-.07-.08,0,0,0,0-.09.05-.14.08-.13,0-.14.05a.13.13,0,0,1-.14.05s0-.05,0-.05l-.07.11a.75.75,0,0,1-.31.08c-.07,0-.07-.1-.08-.05s-.15,0-.2.05a.13.13,0,0,1-.11-.07s.14,0,.07-.05-.38.11-.54.12-.44,0-.55.05a4.2,4.2,0,0,1-.61.06c-.1,0-.08,0-.15,0s0,.05-.14.06-.42,0-.56,0a.7.7,0,0,1-.35,0c-.06,0-.11,0-.21,0s-.13-.09-.19-.14a1.72,1.72,0,0,1-.2-.22.41.41,0,0,0-.18-.06.64.64,0,0,1-.21-.09c-.07,0-.06-.06-.09-.07s-.16.16-.17.18a.41.41,0,0,0,.06.22.37.37,0,0,1,.06.22.2.2,0,0,1-.07.11s-.1.11-.09.17a.28.28,0,0,1-.1.17c0,.05-.12.07-.13.11a1.61,1.61,0,0,0,0,.31.25.25,0,0,1,0,.1.27.27,0,0,0-.06.12.5.5,0,0,0,.11.26c.07.06,0,.35.1.41s0,.16.08.19a.59.59,0,0,0,.11.09s0,.05,0,.08a.22.22,0,0,0,0,.17,2,2,0,0,1,.15.19c.05.06.05.1.14.1a.17.17,0,0,1,.16.11.8.8,0,0,0,.07.2,1,1,0,0,0,.17.25c.07.07.11,0,.18.05s.18.19.22.25.07,0,.16,0,.11,0,.13,0,.19,0,.25,0,0,0,.12,0a.37.37,0,0,1,.17.06.34.34,0,0,0,.17-.05.23.23,0,0,1,.14-.07c.07,0,.11.08.14.08s.11-.07.15-.06l.12.06a.12.12,0,0,0,.12,0,.42.42,0,0,1,.16,0l.2,0c.06,0,0-.05.06-.07s.06,0,.1,0,0,0,.11,0,.06.05.09,0a.18.18,0,0,1,.09,0s0-.05.12,0,.19-.12.25-.12,0,.07.06.07,0,0,.09-.06.12-.08.19-.06.07.08.08.1.05,0,.08,0,0,0,.08,0,0,0,.06,0a.64.64,0,0,1,.06.1l.05-.12s.2-.06.25-.07H56c.07,0,0-.1.1-.11s.07.06.11.09.19-.05.26-.06.27,0,.38-.08a1,1,0,0,1,.34,0,2.61,2.61,0,0,0,.37-.14.62.62,0,0,1,.24-.05c.12,0,.33-.08.35-.14s.17,0,.37-.05.19-.06.25-.1,0,0,.13,0,.16-.05.23,0,.05.17,0,.23-.12.18-.15.26l-.15.34c0,.07-.15.38-.16.43a.88.88,0,0,1-.12.26.91.91,0,0,0,0,.3c0,.06-.12.2-.09.29s-.1.37-.1.39-.08,0-.08.15-.06.47-.06.55a3.22,3.22,0,0,1-.12.37,1.85,1.85,0,0,1,0,.27,1.09,1.09,0,0,0,0,.24c0,.09,0,.15,0,.15s-.06.19-.1.24a.57.57,0,0,0,0,.24,1.67,1.67,0,0,1-.08.32c0,.08,0,.22-.07.29a.73.73,0,0,1-.08.25c0,.06,0,.06,0,.14a1,1,0,0,1-.11.2c0,.07.05.17,0,.25a.41.41,0,0,0-.05.19c0,.08-.1.21-.07.35a2.69,2.69,0,0,1-.12.54,1.77,1.77,0,0,0-.08.61,2.57,2.57,0,0,1,0,.4c0,.13,0,.4.05.51s.12.31.15.44a3.2,3.2,0,0,1,.15.37c0,.09,0,.12.08.14s0,.11,0,.23.11.13.16.2a.33.33,0,0,1,0,.21c.05,0,0-.08.06-.15s0,0,.09.06,0,.12.06.06,0-.2,0-.24.09,0,.06.11,0,.26,0,.2,0-.07.06-.1,0,.06.05.14a.61.61,0,0,0,.16.28c.06.05.08.08.06.14s0,.15,0,.12,0,0,.08,0,.08,0,.08,0,0-.05.07-.06.07.08.13.17.41.23.47.41a.83.83,0,0,0,.31.4c.08.06.19.27.26.33a.32.32,0,0,1,.07.11c.16.14.16.23.3.22s.22.07.25.06,0-.07,0,0a1.58,1.58,0,0,0,.22.16c.09.07.16.19.19.16s0,0,0-.06a2.22,2.22,0,0,1,.47.28.18.18,0,0,0,.2,0s0-.09.11-.12.07.09.21.07a3.63,3.63,0,0,1,.66,0,2.6,2.6,0,0,0,.38,0c.16,0,.25-.11.3-.11s.14.07.19.06a.44.44,0,0,1,.19,0h.33l.08,0s0-.09.09-.09h.34a.24.24,0,0,0,.17,0,1.22,1.22,0,0,1,.2-.07l.24,0,.36,0c.09,0,.09,0,.09,0s1-.17,1.13-.19a.69.69,0,0,1,.43,0,.63.63,0,0,1,.24.16c.1.12.13.07.21.12a1.35,1.35,0,0,0,.4.12c.11,0,.07.11.15.17s.25,0,.3.09.18,0,.18.06.18.09.23.12.13,0,.18.07.14,0,.22,0,.08,0,.08,0a.85.85,0,0,0,0-.13.94.94,0,0,1,.06-.28c.06-.13.09-.07.14-.12a.84.84,0,0,0,.07-.24c0-.07.14-.15.17-.28a.87.87,0,0,0,0-.28c0-.06,0-.14.05-.11s.08-.15.08-.26.2-.61.22-.7.13-.35.18-.47a2.43,2.43,0,0,0,.08-.54.59.59,0,0,1,0-.23,2.24,2.24,0,0,0,0-.52s0-.25-.07-.31a.48.48,0,0,1,0-.17c0-.05,0-.18,0-.22s-.12-.07,0-.13a.67.67,0,0,0,.08-.37s0-.37,0-.48a7.38,7.38,0,0,0,0-.94c0-.12,0-.88,0-1s.18-.46.17-.55-.06-.14,0-.25a4.28,4.28,0,0,0,0-.8,2.62,2.62,0,0,1,0-.69,7.73,7.73,0,0,0,.06-1,1.72,1.72,0,0,0,0-.31.86.86,0,0,1,0-.21c0-.07-.13-.17-.2-.24a3.51,3.51,0,0,1-.27-.34.59.59,0,0,0-.09-.18c-.07,0-.29-.29-.33-.31a5.6,5.6,0,0,0-.5-.36c-.12-.06-.52-.36-.6-.41l-.25-.16s-.1,0-.15,0a.43.43,0,0,1-.19,0s-.07,0-.15,0-.17-.06-.2-.08a2.82,2.82,0,0,0-.39,0l-.48,0c-.13,0-.17-.05-.26-.05s-.66,0-.74,0a.19.19,0,0,1-.17,0s-.06-.05-.09-.05-.12.09-.18.1,0,0-.11,0l-.23,0a1.19,1.19,0,0,0-.22.05c-.08,0,0,.09-.09.06s-.14,0-.3.1a2.5,2.5,0,0,1-.68.16,1.65,1.65,0,0,0-.57.13l-.76.26c-.09,0-.19,0-.19-.06a.45.45,0,0,1,.09-.2.37.37,0,0,0,0-.23c0-.07.1-.09.15-.08s.11-.14.17-.23a3.76,3.76,0,0,1,.51-.43c.06,0,.19-.05.23-.1a1.7,1.7,0,0,1,.27-.19s.1,0,.15,0a.26.26,0,0,0,.16-.07.18.18,0,0,1,.15-.05.26.26,0,0,0,.23-.16c0-.06.1,0,.13,0a.19.19,0,0,0,.17,0c.07,0,0,0,.07-.05s0,.06.08.06.78-.19.8-.19.13,0,.15,0a.09.09,0,0,0,.1,0,4.71,4.71,0,0,1,.48-.09,9.15,9.15,0,0,1,1-.09h1.17a1.36,1.36,0,0,1,.29,0,3.91,3.91,0,0,0,.71,0h.45c.06,0,.13.06.21.08s.06,0,.12,0a.79.79,0,0,1,.22,0c.06,0,.05,0,.07,0s.07,0,.09,0l.14.1a1.25,1.25,0,0,0,.29.06.74.74,0,0,0,.17,0c.06,0,.1-.08.16,0s.18.07.25.1.12,0,.2,0l.18.06a.45.45,0,0,1,.2.06,1.11,1.11,0,0,0,.35.13,1.35,1.35,0,0,1,.33.05l.34.14a1.36,1.36,0,0,0,.42.1l.34,0s.12-.06.19,0a.29.29,0,0,0,.21,0s.06,0,.11,0,.08,0,.11,0,.08,0,.12,0,.06.05.15.06.13,0,.17,0,0,0,.09,0h.26S75.4,19.62,75.34,19.6ZM62.59,22.94c.1-.08.11,0,.18,0s.23-.14.38-.21l.4-.15c.13,0,.46-.06.59-.08l.37-.06c.08,0,.06-.07.18-.11a2.79,2.79,0,0,1,.41-.12,3.65,3.65,0,0,0,.36.08c.13,0,.27,0,.45.06s.24.09.55.22.27.3.37.43a.66.66,0,0,1,.11.26,2.06,2.06,0,0,1,.08.49.2.2,0,0,0,0,.22s0,.32,0,.39.09.16,0,.2,0,.21,0,.34a8.35,8.35,0,0,0,0,1,1.15,1.15,0,0,1,0,.57.33.33,0,0,0,0,.24c0,.13,0,.32,0,.44a1.31,1.31,0,0,0,0,.37s.08.09,0,.1-.08.08-.05.2,0,.24,0,.31,0,.15,0,.27-.09.25-.08.37-.08.09-.08.26a.69.69,0,0,1-.08.36l-.18.19c0,.06,0,.07-.12.07s-.07.05-.12.08-.34.08-.42.13-.18,0-.32.07-.26,0-.36.1a.7.7,0,0,1-.37.1.74.74,0,0,0-.37.06,1.94,1.94,0,0,1-.56.12c-.11,0-.52.13-.66.16l-1.06.15c-.13,0-.32.06-.47.07a2.83,2.83,0,0,0-.65.09c-.13.07-.14-.05-.2-.06s0-.2,0-.29a.48.48,0,0,0,0-.24c0-.05,0-.2.11-.24s.06-.23.09-.3a.8.8,0,0,0,0-.27c0-.09.06-.14.05-.19s-.1-.05-.05-.15a.75.75,0,0,0,0-.3.17.17,0,0,1,.16-.19c.1,0,.1.07.26.07a10.73,10.73,0,0,1,1.22.23c.23.05,1.07.23,1.38.27a.69.69,0,0,0,.51-.15c.07,0,.27,0,.3-.05a.12.12,0,0,0-.1-.14.25.25,0,0,1-.18-.1c0-.06.1-.1,0-.18s-.21,0-.38-.2-.56-.18-.75-.24-.89-.19-.94-.2a8.16,8.16,0,0,0-1-.18,1.24,1.24,0,0,1-.62-.26c-.12-.09-.08-.41-.06-.5a1.78,1.78,0,0,0,0-.52,1.25,1.25,0,0,1,.07-.62c.06-.09.27.05.37.1s.17.1.26.06a2.16,2.16,0,0,1,.6,0,9,9,0,0,0,1.17-.07.4.4,0,0,1,.37,0c.18.09.46.1.51,0s.25,0,.32,0,.13-.07-.1-.12-.07-.12,0-.12,0-.1-.16-.13-.3-.28-.46-.34L63.6,25a2.53,2.53,0,0,0-.67-.11c-.27,0-.41-.11-.62-.11s-.86.22-1,.22-.13-.1-.14-.22.12-.5.11-.69a.93.93,0,0,1,.21-.58,2.81,2.81,0,0,1,.6-.24A1.52,1.52,0,0,0,62.59,22.94Z" transform="translate(-0.02 -0.02)"/><path class="cls-1" d="M55.26,21.44h0Z" transform="translate(-0.02 -0.02)"/><path class="cls-1" d="M59,16.84s0-.08-.06-.07-.15.1-.15,0a.25.25,0,0,0,.12-.07c.06,0,.08,0,.11,0s.09,0,.09,0,0-.06,0-.09,0,.06,0,0,.12-.06.11-.09,0,.06,0,.06a.32.32,0,0,0,.18,0s0-.1,0-.1.11,0,.16,0a.12.12,0,0,1,.08,0s-.11,0-.15.05-.08,0-.06.05a.15.15,0,0,1,0,.1.08.08,0,0,0-.09-.08h-.16s-.17,0-.16.05,0,0,.09,0,.07,0,.1,0,.16,0,.1.11,0-.1-.13-.05-.16,0-.16.07,0-.06-.11,0S59,16.92,59,17Z" transform="translate(-0.02 -0.02)"/><path class="cls-1" d="M83.58,22.07l0,0Z" transform="translate(-0.02 -0.02)"/><path class="cls-1" d="M82.94,28.68c0,.05,0,0,0,0Z" transform="translate(-0.02 -0.02)"/><path class="cls-1" d="M93.3,18.49s0-.23,0-.31-.13-.2-.09-.26-.13-.18-.12-.27a.36.36,0,0,0-.15-.29.41.41,0,0,1-.2-.16c0-.09-.26-.17-.3-.22s-.17,0-.24,0A.49.49,0,0,1,92,17c-.06,0-.11,0-.19,0s-.15,0-.22,0-.09.08-.17.11-.09,0-.15-.06,0,0-.12,0-.09,0-.22,0a2.61,2.61,0,0,1-.34,0l-.19.09s-.17,0,0-.12.07-.2.05-.28.07-.15.14-.22,0-.12,0-.17,0-.15,0-.24,0-.13.22-.22a3.22,3.22,0,0,1,.55-.18c.26-.08.43-.21.55-.24s.31,0,.34-.05a.78.78,0,0,1,.13-.13c-.09,0,0-.1-.06-.15s0-.09,0-.09,0-.07,0-.11-.09-.06-.12-.13.06-.06.06-.06,0-.12,0-.15.05-.1,0-.09a.33.33,0,0,1-.22-.08s0-.07-.14-.09-.07-.09-.15-.14a.11.11,0,0,0-.12,0,.31.31,0,0,1-.07.22c-.09.08-.05,0-.18,0a1,1,0,0,1-.29.08c-.05,0,0-.1.09-.14a.14.14,0,0,0,.08-.21c0-.09,0-.11,0-.15s-.09-.09,0-.16a.61.61,0,0,0,0-.3.52.52,0,0,1,0-.25c0-.1.11-.11.06-.16a.18.18,0,0,1,0-.23c0-.08.07,0,.07,0s-.08-.17-.1-.24,0-.07,0-.07,0-.09-.08-.16,0-.09-.05-.15-.14-.12-.13-.17.13,0,.13,0-.2-.12-.24-.18,0-.1-.18-.13a.41.41,0,0,1-.21-.14s-.09.05-.09.05-.09-.09-.09-.09a.11.11,0,0,0-.17,0c0,.07-.07.06-.17.17s-.24.17-.32.3a1.36,1.36,0,0,0-.16.35,3.35,3.35,0,0,1-.22.43c0,.06,0,.13-.09.19a5.9,5.9,0,0,0-.39,1,3.29,3.29,0,0,1-.5,1.17,9.45,9.45,0,0,1-1.35.19c-.53.07-1.57.23-1.82.25s-1,.1-1.23.14l-1.14.17c-.16,0-.75.07-.89.08s-.37.07-.39.16.25.33.36.42a2.2,2.2,0,0,0,1.08.1,8,8,0,0,1,1.16-.14c.28,0,1.29-.1,1.47-.12s.94-.06,1.17-.06,1.22-.14,1.25-.13a6.81,6.81,0,0,1-.1.79,2.08,2.08,0,0,1-.11.43c-.05.15-.07.13-.08.23a.73.73,0,0,1-.09.25.68.68,0,0,1-.06.2s-.22.05-.29.08-.13,0-.17.07-.23.05-.31.08a1.49,1.49,0,0,0-.36.19c0,.05-.09,0-.21,0s-.17,0-.24.06a.86.86,0,0,1-.34.12.49.49,0,0,0-.23.11.66.66,0,0,1-.29.09,2.79,2.79,0,0,0-.43.13l-.17,0s-.11.07-.23.12-1.08.39-1.32.45-.55.15-.63.15-.18.05-.22.05S82,20,82,20s0,0-.05,0-.07.05-.14.06-.15,0-.25,0a1.84,1.84,0,0,1-.4,0,1,1,0,0,1-.25,0c-.06,0-.14-.05-.21-.06a1.89,1.89,0,0,0-.31,0c-.11,0-.08,0-.16,0s-.11.16-.2.28-.11.05-.13.1-.1.15,0,.2.1.21.13.27,0,.1.09.19.06.06.14.13.05.07.08.13.18.15.24.22a1.41,1.41,0,0,0,.18.23c.06.06.08.09.17.08s.13,0,.21.08.16.21.25.28.14,0,.23,0a.22.22,0,0,1,.17.07.14.14,0,0,0,.15.05.67.67,0,0,0,.19-.09c.06,0,.12.07.12,0s0-.06.11-.07.08,0,.12,0l.12-.08c.09-.05.08,0,.21-.05s.15,0,.22,0a.57.57,0,0,1,.27-.06c.1,0,.07.07.13.06s0-.08.09-.1.06,0,.08.08,0-.07.08-.11.17-.05.29-.1.73-.15.84-.2.3-.05.47-.11a1.81,1.81,0,0,0,.33-.19c.09-.05.09,0,.07.1a6.72,6.72,0,0,1-1,1c-.31.23-1.31,1.41-1.46,1.56s-.8.86-1,1a1.09,1.09,0,0,0-.24.26.22.22,0,0,0-.07.16c0,.06-.12.09-.18.22s-.12.27-.18.39a1.68,1.68,0,0,0-.08.24c0,.1-.07.15,0,.18s0,.09,0,.13,0,.1,0,.17a1.33,1.33,0,0,0,0,.21s0-.07.1-.07,0,.12,0,.16,0,.1,0,.13,0,.16,0,.21-.07.09,0,.15,0,0,0,.07-.06,0-.06,0a.27.27,0,0,0,0,.17c0,.09.08,0,.11.06s0,.08,0,.14,0,0,.07.1,0,.11.1.12,0,.07,0,.05a.09.09,0,0,1,0-.07s0-.08.09-.12.06,0,.07.09-.06.06-.06.13,0,0,.08.05-.1.07,0,.1.06.06.11.09a.44.44,0,0,1,.11.16.33.33,0,0,0,.13-.08c0-.06,0-.14.1-.14s.06,0,.05.1,0,.12,0,.12,0-.08.05-.11,0,0,0,0,.08,0,.11,0,0-.1.13-.05,0,.1,0,.14v0c.06-.19.17-.19.26-.34s.21-.3.31-.46.59-.69.67-.82.27-.35.38-.47.58-.85.73-.95.53-.55.57-.55.09.16.07.2-.08.07,0,.09,0,.13.06.18-.11.21,0,.28,0,.22-.07.3,0,.14,0,.29,0,.21.11.3a1,1,0,0,1,.17.18s0,.13.13.13,0,.05.15.14.07.26.07.32.08.12.13.05,0-.06.22,0,.13.21.17.18l.09-.06c.1-.06,0,.07.12.09a.38.38,0,0,1,.18.09c.06.06.06.13.13.16s.1,0,.27.09a4.16,4.16,0,0,0,.63.32c.15,0,.27.07.35,0a.59.59,0,0,1,.24,0s0-.09.11-.09.13,0,.22,0h.38s0,.07.06.18,0,.2.09.27a1,1,0,0,1,.08.36c0,.09,0,.07.19.11s.06.07.2.13,0,.1.08.15.1,0,.12-.05.1-.1.13,0,0,.13.06.13a.17.17,0,0,0,.14-.1c0-.05.2,0,.24,0s.15,0,.16.11.12.12.21.13.13.12.21.12.09-.16.11-.25a1,1,0,0,1,.18-.4.16.16,0,0,0,.07-.16c0-.06.36-1.19.43-1.39s.14-.4.16-.47a3,3,0,0,0,.07-.33.8.8,0,0,1,.11-.36,2.6,2.6,0,0,0,.06-.49c0-.2,0-.55,0-.67s.05-.32.05-.43a.36.36,0,0,0,0-.2s0-.22,0-.35.09-.16.1-.21-.06-.16-.08-.22a.88.88,0,0,1,0-.31.65.65,0,0,0-.11-.38c-.08-.09-.08-.17-.13-.23s.06-.1.05-.16-.2-.23-.28-.33A2.79,2.79,0,0,0,92,22a1.65,1.65,0,0,0-.32-.12,1.53,1.53,0,0,1-.39-.14,1.77,1.77,0,0,0-.53-.05l-.61.06c-.21,0-.88.24-1,.25s-.14-.11,0-.19.61-.44.68-.47a2.15,2.15,0,0,0,.46-.35,5.08,5.08,0,0,1,.59-.43c.18-.13.84-.4.91-.46s.14,0,.36-.07a.66.66,0,0,1,.25,0,.81.81,0,0,0,.44-.13c.08-.05,0-.1.12-.15s.19-.34.28-.46a.5.5,0,0,0,.1-.33c0-.1,0-.21,0-.29S93.31,18.54,93.3,18.49ZM89.22,23.4c.2,0,.36,0,.44-.13a.35.35,0,0,1,.24-.07c.06,0,.17-.07.25-.07s.07-.05.07-.05a.15.15,0,0,1-.14,0c-.07,0,0-.09,0-.11s.15-.08.23-.08a.53.53,0,0,1,.22,0s0,.09.08.12.12,0,.17,0a.24.24,0,0,1,.08.22,2.81,2.81,0,0,1,0,.51c0,.2-.07.78-.1.91s-.42,1.32-.46,1.47-.11.63-.2.69-.3,0-.46.08l-1,.29c-.1,0-.24-.21-.33-.35a2.69,2.69,0,0,1-.15-.78c0-.13,0-.37,0-.4s.11,0,.11-.09,0-.18,0-.2a.29.29,0,0,1,.27,0s.06,0,.11.07.15,0,.19.06a.4.4,0,0,0,.2.08s.15-.05.19-.05,0,0,.11,0,.07,0,.15,0,0-.05.1-.05h.22a.13.13,0,0,1,0-.06.21.21,0,0,1,.15,0s0-.05,0-.05h.17a.52.52,0,0,0-.3-.36,5.36,5.36,0,0,0-.7-.26c-.15,0-.21-.1-.38-.1s-.23,0-.32-.07-.08-.11-.06-.26c0,0,0-.47.18-.56A2.33,2.33,0,0,1,89.22,23.4Z" transform="translate(-0.02 -0.02)"/><path class="cls-1" d="M95.34,16.85a1.7,1.7,0,0,1-.36.21c-.11,0-.23,0-.33,0s-.17.22-.16.26,0,.13.06.19,0,.12.07.17a.76.76,0,0,0,.21.13.65.65,0,0,0,.23.06.71.71,0,0,1,.23.07.18.18,0,0,0,.19,0c.06,0,.15.06.2,0a1.42,1.42,0,0,1,.24-.19c.11-.06.32-.21.44-.27s1.12-.65,1.19-.66a.94.94,0,0,0,.23-.1c.07,0,.14,0,0,.2s-.25.64-.32.81S97,19.05,97,19.23a1.46,1.46,0,0,1-.13.39,1.25,1.25,0,0,0-.14.41,3.36,3.36,0,0,0,.51,1.31,12.94,12.94,0,0,0,1.33,1.27,5.69,5.69,0,0,1,.8.84,3.7,3.7,0,0,1,.5.89,5.71,5.71,0,0,1,.23.73c0,.22,0,.63-.19.67a2.09,2.09,0,0,1-.66,0,.6.6,0,0,0-.36,0,4.1,4.1,0,0,1-.61-.15,3.74,3.74,0,0,1-.52-.19c-.25-.08-.44-.08-.45-.15s-.09-.05-.16-.06,0-.08-.15-.17-.08-.14,0-.2a.69.69,0,0,0,0-.37l0-.11.08-.11c0-.06.12,0,.13-.09s0-.1-.11-.21a.34.34,0,0,1,0-.26c0-.05.06-.1,0-.2s0-.26-.06-.43-.12-.14-.13-.25a1.6,1.6,0,0,0-.22-.43,1.27,1.27,0,0,0-.26-.35c-.08-.05-.08-.25-.15-.34a3.63,3.63,0,0,0-1.57-1.19s0,0-.05.06-.13.17-.1.3,0,.71,0,.71a.81.81,0,0,0-.1.17c0,.11,0,.5-.06.78a7.67,7.67,0,0,0,0,1.18c0,.11-.1.57-.12.74s-.1,1.72-.15,2-.13,1.58-.13,1.76a16.07,16.07,0,0,1-.14,1.63,2.49,2.49,0,0,0-.09.69c0,.11-.1.41-.08.61s.16.26.13.4.06.1.07.19.1.13.16.2.12.27.18.34.14,0,.16.09,0,.21.06.26.06.14.13.19.11,0,.17,0,0,.09,0,.14.12,0,.14.06a.51.51,0,0,1,.14.13c.05.07.15.15.22.23a.44.44,0,0,1,.11.15s.08,0,.12,0,0,.07.09.12.09,0,.13.06a.62.62,0,0,1,.11.17.12.12,0,0,0,.21,0c.08-.07.09-.11.12-.11s0,.09.06.13.12.11.15.09.13-.15.1-.22a.49.49,0,0,1,0-.33.66.66,0,0,0,0-.39c-.05-.1,0-.65-.06-1.08s0-.2,0-.49a3,3,0,0,1,0-.6,1.6,1.6,0,0,0,.07-.57,2.92,2.92,0,0,1,0-.6,1.08,1.08,0,0,0,0-.58c-.07-.1,0-.1,0-.19a.69.69,0,0,0,0-.38c0-.12,0-.12.07-.15a3.44,3.44,0,0,0,.11-.75.84.84,0,0,1,.12-.43,2.08,2.08,0,0,0,.13-.46c0-.05.11,0,.2,0s.06.09.15.12.29.08.36.16a.71.71,0,0,1,.11.18l.15.07c.09.06.13.13.26.17s.21.12.3.14a2,2,0,0,1,.35.09s0,.14.09.13a.82.82,0,0,1,.21,0l.19.11c.08.05.16,0,.26.07s.18,0,.3.06a.71.71,0,0,1,.36.17,1.19,1.19,0,0,0,.32.32c.11.05.32.27.36.28s.11.13.19.11a.35.35,0,0,1,.24,0s.2.05.26.05h.27a1.62,1.62,0,0,1,.22,0,.22.22,0,0,0,.21-.21c0-.09.12.05.12.05a.5.5,0,0,1,0-.13c0-.05,0-.21,0-.27a2.3,2.3,0,0,0,.19-1c0-.54,0-.75,0-1.13a8,8,0,0,0-.31-1.21,8.58,8.58,0,0,0-3.37-4.35c-.21-.16-.11-.32-.07-.45s0-.32.07-.42.1-.42.11-.53.09-.12.14-.19a2.06,2.06,0,0,0,.1-.25s.13-.08.14-.13a3.62,3.62,0,0,1,.16-.95,2.37,2.37,0,0,0,.37-.45,1,1,0,0,1,.24-.32c.06,0,0-.16.08-.22a4.1,4.1,0,0,0,.29-.56c.07-.13.36-.57.43-.67a.75.75,0,0,0-.17-1,2.25,2.25,0,0,0-1.25-.25,1.41,1.41,0,0,0-1,.4c-.26.25-1.48.84-1.81,1.05S95.7,16.63,95.34,16.85Z" transform="translate(-0.02 -0.02)"/><path class="cls-1" d="M115.33,24.44Z" transform="translate(-0.02 -0.02)"/><path class="cls-1" d="M114.38,16h0Z" transform="translate(-0.02 -0.02)"/><path class="cls-1" d="M118.48,24.92l0,0A.14.14,0,0,0,118.48,24.92Z" transform="translate(-0.02 -0.02)"/><path class="cls-1" d="M113.74,16.57l0,0S113.79,16.56,113.74,16.57Z" transform="translate(-0.02 -0.02)"/><path class="cls-1" d="M127.71,23.16c-.1-.19-.08-.25-.14-.37a1,1,0,0,1-.16-.19c0-.09-.11-.14-.18-.28a6,6,0,0,0-.71-.6.81.81,0,0,0-.46-.14c-.08,0,0-.07-.15-.09l-.71-.16a2.06,2.06,0,0,0-.46-.09,16.37,16.37,0,0,0-2.37.19s-.07.06-.18-.05,0-.43-.12-.6-.5-.43-.53-.51.18-.28.25-.3,2.14-1.64,2.41-1.83c0,0,.85-.62,1.17-.5a.62.62,0,0,1,.28-.05,7.14,7.14,0,0,1,.74.09c.13,0,.25-.06.34,0a.32.32,0,0,0,.15,0,.33.33,0,0,1-.06-.23c0-.09.1-.15.07-.19s-.17-.05-.13-.11.11,0,.12-.07.1-.06.1-.06a.44.44,0,0,1-.2-.11c0-.06,0-.09,0-.13s0-.13,0-.17a.48.48,0,0,1,.1-.08s-.15,0-.17-.08,0-.09,0-.09,0,0-.08-.06-.06-.16-.12-.23,0-.12-.06-.13a9.83,9.83,0,0,0-1-.13,16.2,16.2,0,0,0-2,0s-1.19.18-1.45.2a7.74,7.74,0,0,0-1.66.4,12.63,12.63,0,0,1-1.86.73c-.4.06-.23-.08-.15-.13a.8.8,0,0,0,.21-.26c0-.05.06,0,.11-.14a2.35,2.35,0,0,0,.12-.45c0-.25.13-.22.11-.42s0-.21,0-.29a3.19,3.19,0,0,0-.12-.41c-.08-.17-.06-.31-.17-.35s-.1-.05-.18-.17a.92.92,0,0,0-.33-.32c-.14-.07-.28-.19-.37-.22l-.22-.06a1.16,1.16,0,0,0-.32-.06c-.1,0-.17-.1-.33-.05a.51.51,0,0,1-.08.23,2.13,2.13,0,0,0,0,.24,3.6,3.6,0,0,1-.42.8c-.08.07-.18,0-.19.11a.61.61,0,0,1-.19.29c-.1.06-.11.14-.17.23a6.59,6.59,0,0,1-.73,1,3.63,3.63,0,0,0-.52.53c-.1.18-.25.3-.31.42a1.72,1.72,0,0,1-.25.52,3.47,3.47,0,0,1-.51.44,3.79,3.79,0,0,1-.42.18c-.12.05-.12.13-.22.14s-.12.05-.18.1-.09-.05-.16-.05-.11.07-.2.06,0-.07,0-.12-.26,0-.09-.15.08-.23.1-.32.11-.06.12-.12,0-.05.08-.09-.09-.08-.07-.12a9.84,9.84,0,0,1,1.18-1.43l.14-.07s-.09-.08,0-.12.13-.13.19-.06.12.08.13,0,.06-.11.07-.18.06,0,.09,0,0-.19,0-.2h.15s0,0,0-.11.1-.12.1-.12l0-.08c0-.05.1,0,.1-.12s0-.1.11-.07a.43.43,0,0,0,.2,0s0-.11,0-.14.08-.27-.07-.38a1.23,1.23,0,0,1-.4-.49c-.1-.19-.17-.19-.51-.21a1.64,1.64,0,0,0-.81.25,12.92,12.92,0,0,0-1.25.73s.58-.35.6-.28-.41.28-.6.37a9.4,9.4,0,0,0-1.1.92c-.23.21-.6.87-.74,1s-.42.64-.55.79a3,3,0,0,0-.42.86,4.69,4.69,0,0,0,0,1.07,2.08,2.08,0,0,0,.3.85c.23.36.42.4.44.52a.64.64,0,0,0,.23.43c.17.14.31.3.52.32s0,.11-.1.31-.24.39-.42.61-.73.94-.83,1.12-.7,1.06-.79,1.19a1.23,1.23,0,0,0-.15.55c0,.06,0,.31.07.37s.07.05.05.2.1.29.12.35a3,3,0,0,1,.11.57c0,.06,0,0,.08.08s0,.15,0,.21a.82.82,0,0,0,.09.11s-.07-.08,0-.07.08.06.11.15a1,1,0,0,1,.06.2s0-.14.07-.14,0,.08.05.14,0-.13.09-.11,0,0,0,.12.12-.09.12,0a.22.22,0,0,0,.12.17c.06.05.12.1.1.17a.1.1,0,0,0,.09.07c.08,0,.12,0,.17.07s.09.1.09.1.06-.24.14-.22.08,0,.07.1,0,.08.05.16a1,1,0,0,1,0,.28,3.21,3.21,0,0,1,.37-.7,10.39,10.39,0,0,0,.67-1.22,9.3,9.3,0,0,1,.55-.76,4.66,4.66,0,0,0,.51-.9,3.91,3.91,0,0,1,.53-.69,4.55,4.55,0,0,0,.41-.56.74.74,0,0,1,.16-.28s.43-.42.44-.54a.7.7,0,0,1,.13-.41,1.12,1.12,0,0,1,.27-.31.88.88,0,0,0,.3-.27c0-.06,0-.13.08-.2s.55-.68.62-.78.07-.17.14-.22.08-.13.14-.17.16-.28.24-.36.07-.25.19-.37.46-.57.56-.66.16-.11.24-.07,0-.08.09-.09.13,0,.13.07a.11.11,0,0,0,.11,0c.07-.05.07,0,.11,0s.08,0,.16-.05a.43.43,0,0,1,.19,0s0-.06.07-.06.29-.1.37-.1.81-.29,1.13-.34a6.51,6.51,0,0,0,1.39-.47c.3-.15.44-.1.3,0a4.89,4.89,0,0,0-.57.43c-.27.26-1.44,1.45-1.76,1.81s-.87.65-1.23,1a3.94,3.94,0,0,0-.44.57,1.26,1.26,0,0,0-.25.28,7.27,7.27,0,0,1-.72,1,1.9,1.9,0,0,0-.41.63c-.09.2-.06.22-.12.27l.12,0a.75.75,0,0,1,.26.22c.05.08.14.17.22.29s.32.34.44.49.29.19.4.28.18.11.25.06.11-.11.16-.1.08.07.22,0,.08-.2.21-.29.51-.25.59-.34.15-.27.24-.25,0,0,0,.06,0-.09.09-.1a12.65,12.65,0,0,1,1.61-.79c.14,0,.08.12.08.24s-.13.26-.08.45,0,.23,0,.32.09.18,0,.45a5.54,5.54,0,0,0,0,1c0,.19-.16.88-.19,1.09s-.09,1.29-.13,1.57-.14,1.24-.15,1.64a4,4,0,0,0,.33,1.42s0-.1.07-.1.11.07.08.1,0,.11,0,.1a.26.26,0,0,1,.09,0,.45.45,0,0,0,0,.08s.09-.09.1,0,0,0,.12.1.08.11,0,.11a.15.15,0,0,1,.1,0s.1.11.14,0a.85.85,0,0,0,.12-.23c0-.05.12-.06.14-.2a.88.88,0,0,0,0-.31s0,0,0-.11a.63.63,0,0,0,.06-.34c0-.1,0-.76.07-.79a2,2,0,0,0,0-.35c0-.08.07-2.31.11-2.8a3.76,3.76,0,0,1,.17-1c0-.09-.1-.12,0-.17s.14-.09.22-.06.24.09.25.15-.07.12-.14.11.1.07.14.14.25.09.33.16.12,0,.21.06.1.22.16.24.23,0,.29,0,.15,0,.22.05.06.08.06.12.14-.07.23-.07.4-.06.48,0a3.25,3.25,0,0,1,.42.21s0-.05.19,0,.2.09.27.08a.6.6,0,0,1,.22-.06l.27,0s0-.15.05-.15l.16-.07c.12-.06.06-.08.2-.12a1.2,1.2,0,0,0,.49-.29c.13-.14.86-.82,1-1s.22-.16.3-.25a2.2,2.2,0,0,0,.35-.84,2.08,2.08,0,0,1,0-.5A3.14,3.14,0,0,0,127.71,23.16Zm-2.81.35c-.06.06-.18,0-.28.06a1.35,1.35,0,0,1-.33.18c-.09,0-.33-.05-.46,0a5.58,5.58,0,0,1-.72,0c-.11,0-.2-.12-.4-.12a1.76,1.76,0,0,1-.44-.07c-.16,0-.12-.1-.08-.16s.29-.08.39-.11l.75-.15c.11,0,.25-.1.34-.11a3.15,3.15,0,0,0,.41,0,2.5,2.5,0,0,1,1,.09C125.29,23.13,125,23.45,124.9,23.51Z" transform="translate(-0.02 -0.02)"/><path class="cls-1" d="M138.23,12c-.1,0,.13-.06.26-.11a.52.52,0,0,1,.39,0,3.22,3.22,0,0,0,.42.21,6.28,6.28,0,0,0,.65.31c.14,0,.15.14.21.22s.37.64.55.86.14.35.19.44a.89.89,0,0,1,.12.46c0,.26.09.33.15.33a.27.27,0,0,0,0,.23c.06.1,0,.15,0,.2a.18.18,0,0,0,.1.09.33.33,0,0,0,0,.37c.13.24.13.07.13.07a1.19,1.19,0,0,1,.07.33.24.24,0,0,0,.13.22s-.1.05,0,.1.08,0,.08,0l-.07.17a.66.66,0,0,0,0,.28c0,.07,0,.2.11.22s.91-.18,1.22-.22,1-.24,1.24-.3.92-.1,1-.17,1.09-1.78,1.27-2,1.2-2.15,1.27-2.34.2-.51.23-.6.18-.81.18-.81h.21c.07,0,.12.12.22.14a.79.79,0,0,1,.3.07,1.37,1.37,0,0,1,.55.47c.13.22.27.56.39.76s.07.24.09.32a1.71,1.71,0,0,1,.07.39,2,2,0,0,1-.1.36,5.06,5.06,0,0,0-.19.53c0,.1.06.12,0,.23s0,.13,0,.17-.13.09-.1.17-.07.09-.08.17a2.41,2.41,0,0,1-.1.46.56.56,0,0,0-.06.28,1.91,1.91,0,0,1-.29.57,1,1,0,0,0-.19.5c0,.09.27.07.44.07s.78.13,1,.16l1,.19a8.09,8.09,0,0,1,.82.19c.24.07.57.21.65.23s0,0,0,.09.07.18.08.22-.13,0-.14.11.05.07.06.14a.48.48,0,0,0,.08.24s-.12,0-.18,0,0,.06,0,.1,0,0,0,.08-.05,0-.09.07-.12,0-.12.06,0,.08-.16.08-.11.07,0,.07a.73.73,0,0,1-.23,0,2.51,2.51,0,0,0-.34,0c-.14,0-.75-.16-1.16-.25a18.12,18.12,0,0,0-1.94-.42c-.28,0-.51,0-.58.06a4,4,0,0,0-.33.53c-.06.1-.2.38-.29.54a4.28,4.28,0,0,1-.34.54c-.14.17-.43.71-.52.78a1,1,0,0,0-.18.28,3.44,3.44,0,0,1-.44.54,2.09,2.09,0,0,0-.44.56.14.14,0,0,1-.08.11.36.36,0,0,0-.11-.18c-.08-.09,0-.11,0-.21s-.07-.05-.09-.08,0-.12,0-.11-.17.19-.17.19a.29.29,0,0,0,0-.11.08.08,0,0,1,0-.11c.07-.05,0-.16-.05-.12a1,1,0,0,0-.11.11s.08-.13.06-.16-.07,0-.13,0,0-.08-.1,0-.07,0,0,.07,0-.17,0-.22.13-.07.07-.1-.14-.08-.18,0,.12-.16,0-.2-.19.13-.19.13,0-.22,0-.23-.08.08-.08.08,0-.08,0-.11-.06,0-.09-.12,0-.2-.09-.24a.4.4,0,0,1-.12-.15s.06,0,.06,0-.15-.1-.17-.18,0-.23,0-.26-.1,0-.1-.08.06,0,.07-.05,0,0-.06-.09a.39.39,0,0,1,0-.24.1.1,0,0,0-.06-.13s-.19-.12-.11-.21.1,0,.12-.1,0-.14-.1-.15-.12.08-.18.08-.11,0-.21,0-.24.08-.29.11-.38,0-.48.07a1,1,0,0,0-.32.28c0,.1-.06.16,0,.19s-.06.08,0,.12.16.08.17,0,0,.11,0,.15,0,.06-.05.09a.13.13,0,0,0-.09.14.1.1,0,0,0,.11.06.28.28,0,0,0,.1-.05.12.12,0,0,0,0,.1,1.66,1.66,0,0,1,0,.22s0,.05,0,.05,0,0,0,.08.05.09.09.06a1.28,1.28,0,0,0,0,.38s0,0,0,.1a0,0,0,0,0-.08,0c0,.06-.12.06-.11.12a.09.09,0,0,1,0,.09s-.08,0-.07.05,0,.16,0,.21a.6.6,0,0,0-.11.1s-.09-.09-.12-.09a.24.24,0,0,1-.11.1.26.26,0,0,1-.26,0c-.1-.05,0-.08-.1-.12s-.09-.05-.12,0,0,.07-.06.07-.05-.08-.13-.11,0-.09-.13-.12-.17-.12-.28-.15a.47.47,0,0,1-.25-.21c-.05-.09-.08-.06-.15-.16A1.83,1.83,0,0,1,140,19c0-.1,0-.16-.13-.13s-1,.26-1.35.39-1.32.45-1.76.6-1.07.29-1.3.37-.26.11-.31.16-.07.13-.12.13,0,0-.09.07-.08,0-.14-.05-.05,0-.13,0-.15,0-.19,0a.32.32,0,0,1-.22,0c-.09,0-.2-.05-.25-.07s0-.09-.12-.09-.16,0-.25,0-.2-.19-.28-.2l-.15,0s0,0,0-.07-.32-.16-.37-.3a.67.67,0,0,1,0-.28s.12.06.15,0,.06,0,.07-.06-.08-.11-.08-.11a.84.84,0,0,0,.16,0,.1.1,0,0,0,.08-.08s.06-.08.11-.07h.29c.13,0,.15,0,.26,0a1.73,1.73,0,0,0,.4-.09,11.88,11.88,0,0,0,1.31-.33c.33-.12,1.68-.59,1.9-.65s2.12-.65,2.26-.65.07-.16.07-.16-.17-.9-.2-1.36-.13-1.77-.16-2.08a3.17,3.17,0,0,0-.53-1.39c-.25-.24-.17-.12-.28-.15S138.38,12,138.23,12Z" transform="translate(-0.02 -0.02)"/><path class="cls-1" d="M137.1,21.05c-.07-.05.13-.08.26-.05a1,1,0,0,0,.38,0,1.31,1.31,0,0,0,.29,0,.41.41,0,0,1,.25.11c.07.05,1,.61,1.13.7s.67.5.75.61.21.4.31.46.06.19.12.24.31.2.29.34,0,.12-.21.1-.09.07-.18.05-.1-.11-.23-.18-.43-.11-.5-.16,0-.13-.13-.13a.57.57,0,0,1-.32-.09c-.05-.06-.08-.09-.13-.09s-.12,0-.34-.19a11.79,11.79,0,0,1-1.18-1.09A5.48,5.48,0,0,0,137.1,21.05Z" transform="translate(-0.02 -0.02)"/><path class="cls-1" d="M137.69,24a.45.45,0,0,0-.29.17c-.1.16-.08.27-.17.41s-.24.52-.38.7a2,2,0,0,0-.29.77c-.11.39-.32,1.09-.38,1.27s-.36,1.58-.43,1.91-.22,1.65-.24,1.9a3,3,0,0,0,0,.61c0,.07.05.15,0,.2s0,.19,0,.26a6.12,6.12,0,0,1,.41.6c0,.16.13.15.18.17s0,.18.07.22.29.08.3.12a1.16,1.16,0,0,0,0,.16s.06,0,.09,0,.05.1.12.15.1,0,.15,0,0,.12,0,.12.09-.12.13-.12.07,0,.08.06.09,0,.12.06.16-.15.18-.11,0-.13,0-.18.13-.54.28-.61a.17.17,0,0,0-.09-.08c-.07,0,.05-.15.09-.19s.69-1.22.79-1.4.29-.51.39-.7.33-.67.27-.69.09-.16.11-.26a2.78,2.78,0,0,1,.07-.39,7.33,7.33,0,0,1,.84-1.5s0-.16,0-.18-.11.09-.21,0-.21-.07-.21-.15,0,0-.16.11-.23.31-.34.31-.05-.13,0-.2a1.5,1.5,0,0,1,.06-.16l-.34.32c-.12.12-.38.66-.57.87S138,29,138,29s.05-.31.07-.45a4.23,4.23,0,0,0,.13-1,.86.86,0,0,1,.1-.6,1.8,1.8,0,0,0,.36-.62c.05-.25,0-.77.06-1a1.15,1.15,0,0,0-.1-.68.6.6,0,0,1-.12-.23.08.08,0,0,1-.1-.05c0-.06-.13-.06-.19-.08s-.15-.1-.26-.15S137.87,24,137.69,24Z" transform="translate(-0.02 -0.02)"/><path class="cls-1" d="M145.1,32.29h0Z" transform="translate(-0.02 -0.02)"/><path class="cls-1" d="M155.1,26.73c-.07,0,0-.08,0-.12s0,0-.14-.14-.09-.29-.31-.34a.8.8,0,0,1-.47-.21c-.2-.17-.21-.3-.35-.38s-.18.07-.29,0,0-.17-.15-.22-.1-.08-.12-.17-.07-.05-.17-.12-.22-.14-.33-.23a.5.5,0,0,0-.39,0,1,1,0,0,0,0,.25c0,.14.14.19.14.33a4.87,4.87,0,0,1,0,.55c0,.1-.16.64-.19.73s0,.17-.06.36a2.19,2.19,0,0,1-.85,1.19,7.85,7.85,0,0,1-2,1,1,1,0,0,0-.44.13c-.12.09-.89.34-1.26.48a14.77,14.77,0,0,1-1.49.38,3,3,0,0,1-1.25.06c-.53-.08-.78-.28-.78-.92a2.57,2.57,0,0,1,.24-1.14c.05-.12,0-.17,0-.37a1.73,1.73,0,0,1,0-.65s.14-.33.14-.47.15-.71.36-.74.29.09.39.25.24.3.36.47.26.14.42.23a1.81,1.81,0,0,1,.51.77c0,.09.11,0,.14,0s0,.18.05.19.19,0,.21.1l0,.15s0-.12.09-.11,0,.11.05.16.13.08.12.13.17-.17.23-.17.17.16.17.18,0-.18,0-.21.17,0,.18-.1,0-.35.14-.43a.73.73,0,0,0,.2-.39,1.27,1.27,0,0,1,.32-.52c.09-.09.08-.26.11-.38a2.2,2.2,0,0,1,.09-.43c.05-.12.4-.64.46-.82a3,3,0,0,1,.16-.56c.06-.11.29-.43.39-.6A1.41,1.41,0,0,0,150,23a1.56,1.56,0,0,1,0-.7c0-.14-.11-.24-.12-.33a.49.49,0,0,0-.16-.27,3.79,3.79,0,0,0-.53-.39c-.13-.1-.13,0-.27,0a1.06,1.06,0,0,0-.47-.1.26.26,0,0,1-.09.16c-.07,0-.86.15-1.38.3s-1.3.46-1.72.61-1.27.64-1.53.71l-.89.27a1.1,1.1,0,0,0-.64.52c0,.13.37.49.47.63s.45.21.57.27.11.2.07.4-.16.62-.21.91-.33.84-.45,1.49a6.05,6.05,0,0,0-.08,2c.09.45.18.6.24.87a4.83,4.83,0,0,0,.71,1.16,2.5,2.5,0,0,0,1.19.74c.33,0,.46-.06.44.05a.17.17,0,0,1-.05.09h.26a8.2,8.2,0,0,0,1.52-.06c.38-.07,1.56-.27,1.84-.35a7.54,7.54,0,0,1,.78-.24c.13,0,.09.14,0,.21s.22-.11.34-.08.16-.12.14-.21,0-.1.09-.06,0,.11.14.05.19-.1.2,0,0-.07.14-.12a.83.83,0,0,0,.24-.15c.05,0,.16,0,.16,0s0-.11.08-.16.11,0,.29,0a10.93,10.93,0,0,0,1.35-.74c.36-.24,1.24-1,1.37-.94s.29.06.36,0-.15-.09-.11-.18.05-.23.13-.22.09-.15.17-.23.16-.09.23-.17a.75.75,0,0,0,.14-.18.29.29,0,0,1,.19-.12s-.17-.06-.13-.11a.21.21,0,0,0,.05-.2c0-.06-.12-.05-.08-.13s.12-.05.12-.12-.07-.37-.06-.48a.74.74,0,0,1,.1-.37C155.23,26.74,155.18,26.74,155.1,26.73Zm-9.8-2.47a1.63,1.63,0,0,1,.17-.35c.05-.09.14-.13.37-.25s.23-.16.35-.21,0-.08.12-.09.39-.25.78-.4a5.59,5.59,0,0,1,.84-.21c.07.2-.15.63-.24.78s-.2.53-.29.73-.38.78-.47,1-.12.3-.32.34-.21,0-.34-.08a1.34,1.34,0,0,0-.44-.13.9.9,0,0,1-.44-.29.35.35,0,0,1,0-.33c0-.08,0-.13,0-.13S145.29,24.4,145.3,24.26Z" transform="translate(-0.02 -0.02)"/><path class="cls-1" d="M168.88,11a7.6,7.6,0,0,1-1,.36c-.25.05-.58.16-.65.34s-.2.19-.2.19a1.83,1.83,0,0,0,.41,0,3.37,3.37,0,0,0,.56-.24,1.5,1.5,0,0,1,.64,0c.13,0,.48.24.49.38s-.1.53-.1.84a2.94,2.94,0,0,1-.11.71,11.61,11.61,0,0,1-.44,1.29c-.11.27-.29,1-.35,1.15a4,4,0,0,0-.25.89,6.83,6.83,0,0,1-.06.8c0,.19-.15.92-.19,1.08a.72.72,0,0,0-.08.26c0,.08,0,.21,0,.25a4.44,4.44,0,0,1-.55.42,1.72,1.72,0,0,0-.25.09,1.89,1.89,0,0,1-.32.14c-.18.06-.19.07-.24.11a.37.37,0,0,1-.2.11.61.61,0,0,0-.2,0,3.12,3.12,0,0,1-.53,0c-.11,0-.1.05-.23,0s-.18-.06-.44-.12-.24,0-.4-.14a.79.79,0,0,0-.45-.07c-.15,0-.12,0-.19.08a.15.15,0,0,0-.06.19c0,.06,0,.18,0,.33a1.47,1.47,0,0,0,0,.36c.06.15,0,.28.09.32s0,.2.09.26a1.38,1.38,0,0,1,.13.39c0,.09,0,.22.08.27s.1.11.09.17a.84.84,0,0,0,0,.27,1.78,1.78,0,0,0,.09.23c0,.07.15.15.15.19a.5.5,0,0,0,0,.19c.05.08,0,.07.09.15a1.89,1.89,0,0,0,.2.2.74.74,0,0,1,.2.2c.09.12.18.2.23.2a1.36,1.36,0,0,1,.25.07c.05,0,.07-.06.12-.06s.05.12.16.12h.14s0-.1,0-.08,0,.09.1.08.05-.1.13-.08.2.07.11.4a6.46,6.46,0,0,1-.24.74,1.51,1.51,0,0,0-.13.34c0,.06-.12.34-.21.63a3.69,3.69,0,0,1-.33.87,3.16,3.16,0,0,0-.34.52,1.32,1.32,0,0,1-.06.3,2.36,2.36,0,0,1-.18.3.18.18,0,0,1-.22,0c-.09,0-.08-.09-.19-.11a.7.7,0,0,0-.34.05c-.08,0-.18.11-.24.09s-.09,0-.12,0,0,.07-.05.05-.08-.08-.23-.18a3.4,3.4,0,0,1-.64-.43,1.9,1.9,0,0,0-.5-.46,6.74,6.74,0,0,0-1.61-.89s.32.15.35.22-.12.05-.18,0a1.75,1.75,0,0,0-.35-.11,2.65,2.65,0,0,1,.42.27c.11.11.13.16.23.19s.21.09.18.13a.33.33,0,0,1-.13.07s.11,0,.12,0-.06,0,0,.14a1.16,1.16,0,0,1,0,.41,4.22,4.22,0,0,0-.11.46.6.6,0,0,1,0,.27,1,1,0,0,0,0,.34c0,.09.07.21,0,.24a.36.36,0,0,0,0,.27c0,.14.07.16.06.24s-.1.2-.07.33.05.17,0,.2a.73.73,0,0,0,0,.47c.09.14,0,.18,0,.18v.13a.25.25,0,0,0,0,.21c0,.05,0,.11,0,.16s.05.05.05.12,0,.14,0,.2.1.11.12.19a2.61,2.61,0,0,1,.12.28c0,.09.07.05.11.06s0,.07,0,.13,0,.09,0,.13.07,0,.07,0a.15.15,0,0,1,0,.08c0,.06,0,.09.09.07s.05.05.06.07.07,0,.07,0-.1.07,0,.1.12,0,.12.08.06,0,.1.12,0,.13.1.15.09,0,.07.11a.21.21,0,0,0,.15.24c.09,0,.09.07.18.12s.11,0,.17,0a1.93,1.93,0,0,1,.25.25.17.17,0,0,0,.15,0,.66.66,0,0,1,.22-.06.91.91,0,0,1,.31.05,1.26,1.26,0,0,0,.18.08c.09,0,0,0,.1,0s.09,0,.08,0,.07,0,.14,0,.15,0,.15,0,.08,0,.05.06-.09.1,0,.1.15,0,.22-.06l.18,0,.14-.07s.11,0,.11,0,.05.1.1,0,.1-.17.14-.18.24,0,.3,0a.14.14,0,0,1,.15,0s0-.06,0-.11.09,0,.24-.06a3.72,3.72,0,0,0,.38-.18s0-.12,0-.15.15-.07.15-.12-.07.06-.07,0a.24.24,0,0,1,.15-.21c.11,0,.14,0,.18-.09a1.79,1.79,0,0,1,0-.38.42.42,0,0,1,.19-.26c.08,0,0-.12,0-.19a2.37,2.37,0,0,1,.17-.41l.06-.2s-.05,0-.05,0,.08-.25.08-.28a.11.11,0,0,1,.07-.1s.19-.1.21-.17-.1,0-.1,0,0-.19.08-.2.11,0,.13-.09a2,2,0,0,0,0-.26s.11,0,.12-.09a2.17,2.17,0,0,1,.06-.37,1,1,0,0,1,.14-.28c0-.07,0-.19,0-.25a1.89,1.89,0,0,0,.11-.25c0-.07.12-.29.12-.35s.11-.47.17-.48a.05.05,0,0,0,0-.07l-.11,0c-.06,0-.14-.1-.07-.12l.17,0a.38.38,0,0,0,.07-.11c0-.07.1-.17.09-.21s0,0-.06,0-.08,0-.07-.05a.27.27,0,0,1,.12-.18c.05,0,.09,0,.13-.08a.56.56,0,0,0,.09-.17c0-.05,0-.12,0-.17a1.91,1.91,0,0,0,.06-.43s0-.08.09-.07.14.14.28.23.28.16.28.2.06.08.13.11.19,0,.2.06.07.08.07.08a.15.15,0,0,1,.13,0,5.2,5.2,0,0,0,.58.41c.14.07,1.25.79,1.59,1a7.51,7.51,0,0,1,.74.52.26.26,0,0,0,.19.11s.17.12.17.12l.07.1s0,0,.12,0,.15.08.15.11.09.07.17.09.09.06.17.12a.41.41,0,0,0,.2.1h.14c.06,0,.12,0,.17,0a.9.9,0,0,0,.21.12c.1,0,.13.1.31.06s.23,0,.27-.09.05-.06.15,0a1,1,0,0,0,.28,0,.62.62,0,0,0,.25-.06.55.55,0,0,1,.25-.13,1.4,1.4,0,0,1,.38-.05,1.62,1.62,0,0,0,.5,0,2.14,2.14,0,0,0,.43-.17c.09,0,.15,0,.23,0s.14,0,.24-.05a.59.59,0,0,1,.24-.09.37.37,0,0,0,.31-.09.63.63,0,0,1,.2-.15s0-.05.12,0,.29-.1.33-.13a.54.54,0,0,1,.23-.06c.09,0,.3,0,.35-.11s.26-.18.28-.37.09,0,.09,0l0-.06.06-.19c0-.06.14-.14.14-.14s-.06,0-.06,0,0-.14.14-.11l.09,0s0-.12-.28-.25-.58-.13-.68-.2-.06,0-.2-.05-.15-.09-.26-.1h-.21a.91.91,0,0,1-.33,0,2.69,2.69,0,0,0-.32-.05,2.65,2.65,0,0,1-.3-.06,1.3,1.3,0,0,0-.33-.08,1.67,1.67,0,0,1-.33,0c-.08,0,0-.05-.15-.06a2.82,2.82,0,0,1-.42,0l-.31-.11a3.73,3.73,0,0,0-.44-.08c-.1,0,0-.08-.15-.08s-.08.07-.17,0a1.51,1.51,0,0,0-.33-.13c-.1,0-.28,0-.37,0a4.93,4.93,0,0,1-.5-.15c-.17,0-.46-.15-.69-.2a2.72,2.72,0,0,0-.42-.07c-.12,0-.15-.09-.12-.09s0,0-.14,0a1.47,1.47,0,0,1-.47-.17,1.06,1.06,0,0,0-.34-.15c-.14-.07-.19,0-.25-.11s-.2-.13-.27-.18-.17-.08-.28-.15a1.47,1.47,0,0,1-.31-.15,1.29,1.29,0,0,0-.37-.23c-.1,0-.13-.05-.22-.07s-.1-.08-.16-.13,0-.06-.13-.07-.1-.06-.16-.09-.07-.11-.13-.13a.33.33,0,0,1-.22-.15.57.57,0,0,1-.06-.39.34.34,0,0,1,.09-.18s.12,0,.11,0a.64.64,0,0,1,.1-.23.25.25,0,0,0,0-.2c0-.09.1-.1.17-.12s.05,0,.11,0,.19-.12.24-.13,0,.06.09,0a1.46,1.46,0,0,0,.21-.14,1.16,1.16,0,0,0,.2-.08.34.34,0,0,1,.18-.09s.19-.09.16,0,.11-.08.16-.07a.88.88,0,0,0,.32-.12s.12,0,.15,0,.05,0,.09-.08a.41.41,0,0,1,.19-.08l.25-.09a2,2,0,0,1,.3-.12l.22-.06a1.68,1.68,0,0,1,.31,0s.05-.08.1-.08.14,0,.18,0,.18-.11.21-.14,0-.05.15,0a.39.39,0,0,0,.23,0,1.27,1.27,0,0,1,.21-.15s.17,0,.1.06a.2.2,0,0,0,.19,0c.1-.07.13-.07.18-.07s.17,0,.2-.06-.08,0-.06-.07.12-.07.12-.07-.08-.05-.08-.08,0-.08,0-.1-.06,0-.06-.05a1.8,1.8,0,0,0,0-.68c-.09-.15-.12,0-.1-.06a2.44,2.44,0,0,0,.06-.31c0-.12-.09-.22-.09-.34a.53.53,0,0,0-.07-.31c0-.07,0-.1,0-.14s0-.08-.16-.13-.1,0-.18-.09-.06-.14-.11-.24-.12-.07-.12-.15a1,1,0,0,0-.2-.48,2.33,2.33,0,0,0-.58-.38c-.16-.05-.15,0-.21,0s0-.07-.17-.07-.51.09-.56.07-.08,0-.15,0a2.6,2.6,0,0,1-.42.15.61.61,0,0,0-.28.06s-.1.1-.22.11-.17,0-.2,0,0,.08-.12.09-.19.08-.28.05a.26.26,0,0,1-.16-.24c0-.06.05-.13.06-.1s.05-.05,0-.06-.06,0,0-.07.07-.1.08-.17,0,0,.05-.11.2-.31.23-.27,0,.11,0,.11l.08-.12c0-.06.13-.18.08-.23s-.09,0-.11,0-.08-.07-.05-.11l.12-.28s0,0,0,0a.4.4,0,0,0,0-.19c0-.09,0-.25,0-.37a.3.3,0,0,1,.1-.29c.09-.08.08-.28.12-.41a1.62,1.62,0,0,0,0-.4s.08-.12.1-.16a.61.61,0,0,0,0-.24c0-.09.05-.06.08-.09s0-.16.06-.22.08-.12.12-.28a1.88,1.88,0,0,0,.09-.56c0-.21-.06-.18-.06-.27a3.8,3.8,0,0,0,0-.9c-.07-.12,0-.19-.1-.27a3,3,0,0,0-.22-.25c-.06-.06-.28-.23-.34-.28s-.18-.07-.23-.09-.14-.19-.27-.27a2.14,2.14,0,0,0-.69-.23,1,1,0,0,0-.49,0,2.57,2.57,0,0,1-.41.08c-.09,0-.19.11-.26.14S169,11,168.88,11Z" transform="translate(-0.02 -0.02)"/><path class="cls-1" d="M191.23,11.06a4.2,4.2,0,0,0-.26-1.2s-.06,0-.11-.07a.13.13,0,0,0-.12-.07s0,0,0,0-.11-.08-.11-.08l-.13.09a.18.18,0,0,1-.2,0l-.12-.06-.11.07a1.94,1.94,0,0,1-.35.07c-.1,0-.07,0-.17.05a1.71,1.71,0,0,0-.41.69c-.12.36-.33.69-.39.88s-.11.55-.19.79a3.24,3.24,0,0,0,.08,1.18,1.12,1.12,0,0,0,.58.68c.25.14.46.19.46.23s0,0,.08,0a3,3,0,0,0,.43.2,3.31,3.31,0,0,0,.36.13c.09,0,.21,0,.21.07a.1.1,0,0,1,.1-.08c.09,0,.12,0,.17-.09a.39.39,0,0,0,.11-.29,1.57,1.57,0,0,1,.09-.48l.06-.08a.07.07,0,0,1-.07-.08,2,2,0,0,1,.3-.49,6.54,6.54,0,0,0,.41-.51.12.12,0,0,1,.12-.07s0-.06,0-.06-.09.07-.09,0,0-.11.09-.19a1.21,1.21,0,0,0,.21-.28c0-.1,0-.11.08-.17a1.2,1.2,0,0,0,.21-.28,2.93,2.93,0,0,1-.34.22,7.58,7.58,0,0,0-.72.5c-.21.16-.24.27-.32.24s.06-.34.07-.43A4.75,4.75,0,0,0,191.23,11.06Z" transform="translate(-0.02 -0.02)"/><path class="cls-1" d="M195.48,7.52s-.08,0-.12,0l-.13,0s-.11,0-.16,0a.52.52,0,0,1-.19,0,1.21,1.21,0,0,0-.37,0s0,0,0,0a.36.36,0,0,1-.24.05.54.54,0,0,0-.22,0s-.07.08-.08.12a.57.57,0,0,0,0,.23c0,.09,0,.1,0,.3a2,2,0,0,0,.06.64,4.15,4.15,0,0,1,.17.41c0,.08,0,.24,0,.42a1.13,1.13,0,0,0,.1.39,2.92,2.92,0,0,1,.23.36s.1,0,.13.05a.28.28,0,0,0,.11.1s0-.07,0-.07,0,.06.07.1.08.09.09.15a.39.39,0,0,1,0,.11s.06-.11.09-.11.08.08.07.11,0,0,.05.1.06,0,.08,0,0-.07.09,0a.17.17,0,0,1,.11.13c0,.08.1.1.1.15s.1.07.1.07a.14.14,0,0,1,.14,0c.09,0,0,0,.08.1s.1,0,.17.1a.58.58,0,0,1,.11.18.3.3,0,0,1,.08-.07s.07,0,.11-.07.1,0,.14-.07.1,0,.11-.06,0-.11.09-.11a.19.19,0,0,1,.11.12s0-.14,0-.17.08,0,.07-.11a6.18,6.18,0,0,1-.14-.74,2.19,2.19,0,0,0-.17-.68,6.43,6.43,0,0,0-.31-1.07A2.53,2.53,0,0,0,195.48,7.52Z" transform="translate(-0.02 -0.02)"/><path class="cls-1" d="M199.58,8a.62.62,0,0,1-.1.36c-.11.13-.18.15-.23.27a4.86,4.86,0,0,1-.35.53,3.77,3.77,0,0,1-.49.52c-.14.14-.29.31-.45.49s-.52.73-.7.91-.33.47-.47.61-.54.55-.75.74-1.07,1-1.24,1.16l-1.71,1.81c-.18.19-.52.23-.71.31a4.72,4.72,0,0,1-.6.31c-.27.08-.81.49-1.27.69s-2.16,1.17-2.25,1.2-.08-.11-.22-.28-.2-.14-.27-.23a1.26,1.26,0,0,0-.32-.21.85.85,0,0,0-.29-.12s0,0,0,0-.05,0-.12-.05-.11,0-.18,0-.08,0-.17.13-.5.75-.62.95-.15.18-.18.26,0,0,0,.12a.49.49,0,0,1-.2.34,12.1,12.1,0,0,0-.77,1.2c-.2.31-.45.77-.58,1s-.27.65-.38.82-.27.6-.36.79-.45,1-.48,1.09A.43.43,0,0,1,183,24c-.12.07-.1.11-.1.11a1.47,1.47,0,0,1,.05.19c0,.07.09.07.08.14a1.23,1.23,0,0,0,0,.2s.08-.19.12-.16,0,.08,0,.16a.68.68,0,0,1,0,.32.76.76,0,0,0,0,.2s.07-.13.11-.1,0,0,0,.1,0,.11,0,.11a.11.11,0,0,1,.09.09s.06-.06.08,0,0,.08,0,.09a.15.15,0,0,0-.07.05s0,0,0,0a.72.72,0,0,1,0,.17c0,.1,0,.09,0,.11s0-.05.09,0,.07.06.07.06a.11.11,0,0,1,0,0s.11,0,.11,0,0,.07,0,.13,0,0,0,.1a.11.11,0,0,0,.05.08s.08,0,.06,0a.71.71,0,0,0,0,.16s.08-.07.08,0a.5.5,0,0,0,0,.12s0,0,.06,0,.06,0,.07.09,0,.08,0,.14.07-.06.09,0l.08.13s.18.07.23.05-.05-.07,0-.06,0,0,.11.06.06,0,.13,0a.17.17,0,0,1,.07.11.26.26,0,0,1,.08-.08,3.72,3.72,0,0,0,.53-1.21c.15-.64.13-.66.18-.83s.59-1.16.66-1.48a12.47,12.47,0,0,1,.84-1.77c.16-.3.55-.85.65-1.11a6.7,6.7,0,0,1,.26-.91.31.31,0,0,1,.23-.08c.08,0,.16-.08.21-.08s.23,0,.25-.07.11-.11.14-.08,0,.08,0,.08a.24.24,0,0,1,.13-.12c.1,0,.31-.1.33-.18l.05-.14s.15.13.16,0,0-.18.1-.2a2.35,2.35,0,0,0,.47-.35c.11-.11.29-.22.29-.17s.06,0,.06,0,.48-.33.49-.27.05.06.05.06,0-.07,0-.07.21-.11.28-.13.06,0,.07,0,0,0,.06,0a4.7,4.7,0,0,1,.46-.2,1.48,1.48,0,0,0,.37-.15c.05-.05.16-.15.19-.11s.06,0,.09,0,0-.17.09-.23.13,0,.2-.07.25-.26.41-.21a.1.1,0,0,1,0,.08s.11-.1.13-.1a.54.54,0,0,1,.39-.12,6.41,6.41,0,0,0,.73-.07c.31,0,.16-.09.21-.09s.19,0,.26,0,.15-.07.2-.06,0,.07,0,.07a1.06,1.06,0,0,0,.22-.06c.05,0,.25,0,.33,0s.13-.06.15,0,.07.06.07.06l.12,0c.12,0,.22-.09.2,0s.09,0,.17-.05a.18.18,0,0,1,.17,0,2.47,2.47,0,0,0,.33,0c.16,0,.41-.06.51-.06a5,5,0,0,1,1.18.09c.34.1,1,.33,1.21.4s1,.44,1.18.53.37.19.38.24,0,.15.09.15.06.1.06.12.08.15-.3.43a9.33,9.33,0,0,0-.88.93,3.28,3.28,0,0,0-.38.36.9.9,0,0,0-.18.35.49.49,0,0,0,0,.24s0,0,.06,0a.21.21,0,0,0,.09.07s0,0,.13,0,.11.1.11.1a.77.77,0,0,1,.15.1.56.56,0,0,1,.08.15s.07,0,.11,0,0,.11.09.13.07,0,.14,0,0,.06.17.15a.92.92,0,0,0,.4.23c.11,0,.11.09.11.09a.08.08,0,0,1,.07-.06c.07,0,.08,0,.16,0s.08-.08.12,0a.29.29,0,0,0,.1.06s0,0,.06,0,.1,0,.12,0,.07,0,.14-.06a.57.57,0,0,1,.21-.1c.06,0,.15,0,.19,0s.08-.08.09,0a.79.79,0,0,1,0,.12s0-.08.05-.1,0-.1.11-.08.07,0,.13,0a.27.27,0,0,0,.15,0s0-.06.08-.06a1.18,1.18,0,0,1,.27,0c.08,0,.12.1.21.12s.19,0,.24,0,0-.06.09-.06,0,.07.09.07,0,0,.13,0a1.85,1.85,0,0,0,.48,0c.09,0,0-.08.13-.07a.3.3,0,0,0,.32-.24,1.26,1.26,0,0,0,0-.4A.46.46,0,0,0,205,20c-.08-.07,0-.13-.06-.19a1.26,1.26,0,0,0-.15-.2c-.08-.08-.13-.33-.22-.42a2.94,2.94,0,0,1-.28-.4,8.69,8.69,0,0,0-.71-1,10,10,0,0,0-1.39-1.35,10.81,10.81,0,0,0-1.63-.73c-.42-.14-1.36-.5-1.64-.56a3.88,3.88,0,0,0-1-.19,7.55,7.55,0,0,0-1.14.05c-.22,0-.16,0-.29,0s0-.21,0-.21.44-.56.67-.63.18-.14.22-.15a.37.37,0,0,0,.22-.12c.08-.09.27-.16.34-.25s.31-.34.43-.5a6.67,6.67,0,0,0,.71-1.08c.05-.15.17-.13.19-.17a.56.56,0,0,1,.17-.27c.11-.07.5-.47.71-.6s.24-.26.34-.45.28-.62.34-.7a1.59,1.59,0,0,0,.14-.8,2.16,2.16,0,0,0-.2-.66s0,.06-.1,0-.07-.13-.16-.15a2.71,2.71,0,0,1-.33,0s0-.06-.14-.09a1,1,0,0,1-.25-.05Z" transform="translate(-0.02 -0.02)"/><path class="cls-1" d="M188.57,20.87a.82.82,0,0,0,.34,0s.72-.35.84-.43a8.28,8.28,0,0,1,1.43-.71,7.59,7.59,0,0,0,1.09-.41c.28-.11.72-.18,1-.26a9.61,9.61,0,0,1,1.29-.29,3.34,3.34,0,0,1,1,0,5.33,5.33,0,0,0,.89.12,1.72,1.72,0,0,1,.73.07,4.85,4.85,0,0,1,1,.5c.12.1.1.18.13.2a.62.62,0,0,1,.23.19,3.23,3.23,0,0,1,.25.41c.06.1.17.16.18.23s-.06.11-.11.16a3.82,3.82,0,0,1-.36.21c-.07,0,0,.1-.08.16s0,0-.09,0a1.24,1.24,0,0,0-.44.33c0,.08,0,.11-.05.16s0,0-.1,0a1.36,1.36,0,0,0-.28.27c-.18.19-.24.18-.29.26s0,.11-.08.16a.37.37,0,0,0-.1.16.75.75,0,0,1-.09.24.06.06,0,0,0,.06.09,2.14,2.14,0,0,1,.55-.1c.23,0,.9,0,1,0a2,2,0,0,1,.39,0l.5.06c.19,0,.28,0,.34.06s.08.18.23.22a1,1,0,0,1,.26.13.72.72,0,0,1,.26.16c.05.05,0,.11.1.14s.17,0,.18.1a.22.22,0,0,0,.15.11s.07.14.08.22.07.2.09.3a1.17,1.17,0,0,0,.15.27c.05.08.07.21.14.25s.08.2,0,.26-.06.09-.06.14.05.12,0,.2-.1.2-.14.24,0,.07-.05.16-.06.16-.18.16a3.25,3.25,0,0,0-.51-.05.81.81,0,0,1-.27,0c-.14,0-.22,0-.28,0s-.15,0-.11.06-.18,0-.28,0a1.69,1.69,0,0,0-.63-.05,3.82,3.82,0,0,0-.69.1,1.23,1.23,0,0,1-.25.05s0-.07,0-.08-.2.06-.19.08,0,.07-.06.08.05-.1,0-.1a.19.19,0,0,0-.15.06s-.11.07-.19,0-.13,0-.16,0a.76.76,0,0,1-.08.11s0-.07-.08-.07-.07.09-.08.11,0,.13,0,.18-.1,0-.09.1.05.55.07.78a6.75,6.75,0,0,1,0,1.2c-.05.29-.11.85-.16,1a4.68,4.68,0,0,0-.05.83c0,.09,0,.59,0,.82a2.93,2.93,0,0,1-.15.91s-.23.47-.26.55-.08.51-.1.62a2.09,2.09,0,0,1-.15.51.3.3,0,0,0,0,.26l-.11.05a.55.55,0,0,0,0,.18.58.58,0,0,0,0,.24c0,.09,0,.17,0,.25s.07.09.05.17a.85.85,0,0,0,0,.22s0,.15-.06.07,0,.23,0,.23,0,.12,0,.12-.06.14,0,.2-.06.07-.22-.17c-.05-.07-.05,0-.12,0s-.14-.08-.22-.08,0,.12-.25.06a2.68,2.68,0,0,1-.77-.44,6.48,6.48,0,0,1-.84-.83c-.16-.25-.24-.53-.33-.68a6.28,6.28,0,0,0-.37-.59,1.8,1.8,0,0,1-.24-.24c-.09-.12-.09-.29-.16-.35s-.07-.16-.11-.3-.08-.19-.1-.29-.08-.19-.06-.29a1.67,1.67,0,0,0-.08-.49.77.77,0,0,0-.09-.37.92.92,0,0,1-.22-.43s.12.28.16.21,0-.15,0-.28-.1-.68-.1-.68.06.23.09.23,0-.13,0-.22-.06-.42-.06-.49,0,0,.05-.05.06-.07,0-.15a.91.91,0,0,1,0-.27s0,0,.07.22a7.81,7.81,0,0,0,.83,1.55,6,6,0,0,0,.74.71c.25.13.45.33.54.23a2,2,0,0,0,.21-.8c0-.28.24-1.31.28-1.65a14.7,14.7,0,0,0,.28-2.07c-.06-.33-.2-.23-.36-.17a3.79,3.79,0,0,1-.57.2l-.49.13c-.1,0,0-.07-.14-.07s-.12.13-.2.14,0,0-.05-.05-.08.09-.18.1a.4.4,0,0,0-.27.05c-.13.07-.05-.1-.16-.05s0,.12-.11.12a.73.73,0,0,0-.2,0c-.11,0-.13.07-.17.07s0-.05-.08-.05-.1.08-.1.08,0-.08-.09-.08,0,.1-.29.17,0-.07-.09-.06a.24.24,0,0,0-.19.09s0,.05-.13.06-.08,0-.17-.08,0,.08-.09.11,0-.07-.07,0,0,.07,0,.08a1.16,1.16,0,0,0-.27,0c-.09,0-.12,0-.12,0a.25.25,0,0,0,.12-.07c.07-.05.07-.08,0-.08s-.1,0-.2,0-.09,0-.09,0,0,.13,0,.13a.83.83,0,0,0-.11-.13c-.05,0,0-.1-.12-.11a.63.63,0,0,1-.54-.2c-.28-.24-.29-.5-.48-.75a1.82,1.82,0,0,1-.28-.77,4.75,4.75,0,0,1,.06-.82s.06,0,.06-.08a1.38,1.38,0,0,1,.21-.5,2.31,2.31,0,0,0,.3-.4c.05-.06.09,0,.12-.05s.07-.06.09-.06.06.08.12.09a1,1,0,0,0,.27,0c.09,0,0,0,.08.07a.59.59,0,0,0,.37.06c.19,0,.73-.19,1-.23a9.49,9.49,0,0,0,1.14-.28,1.78,1.78,0,0,1,.49-.09,2.13,2.13,0,0,0,.64-.08c.06-.06.21-.18.18-.29s-.08-.1.09-.2.07-.13.16-.22a3,3,0,0,0,.39-.34,3.25,3.25,0,0,1,.54-.62,2.37,2.37,0,0,0,.48-.47,7.37,7.37,0,0,1,.39-.63c.11-.14.32-.23.14-.33a1.19,1.19,0,0,0-.61-.13,4.5,4.5,0,0,0-1,.24,3.76,3.76,0,0,1-.48.11c-.16.05-.16.11-.25.11a.72.72,0,0,0-.27,0s-.07.09-.1.11a.19.19,0,0,0-.08.06s0-.07-.06-.07a.14.14,0,0,0-.12.12.77.77,0,0,0-.21.05,3.58,3.58,0,0,1-.32.18,2,2,0,0,0-.31.12.33.33,0,0,0-.09.11s0-.07-.08-.05-.07.09-.13.13,0,0-.16,0-.09,0-.12.08-.07.1-.13.1a.14.14,0,0,0-.12.06.33.33,0,0,1-.14.09c-.06,0-.12,0-.13.05l-.06.1h-.08c-.05,0,0,0-.06.07s0,0-.1.06-.1,0-.11.05a.14.14,0,0,1-.06.08s-.06,0-.07,0,.08.05.06.08-.09,0-.13,0a.3.3,0,0,0-.13,0c-.1,0-.16,0-.17,0s0,.08,0,.08l-.08,0a1.21,1.21,0,0,0-.3-.07c-.12,0-.26-.17-.46-.31s-.21-.12-.27-.19,0-.12,0-.17a.49.49,0,0,1-.15-.24C188.61,21.06,188.54,21.06,188.57,20.87Z" transform="translate(-0.02 -0.02)"/><path class="cls-1" d="M61.52,37.59V39.4h-.15a2,2,0,0,0-.63-1.09,1.62,1.62,0,0,0-1.05-.37,1.52,1.52,0,0,0-.89.28,1.65,1.65,0,0,0-.6.73A3.37,3.37,0,0,0,58,40.24a4.19,4.19,0,0,0,.18,1.27,1.6,1.6,0,0,0,.55.87,1.52,1.52,0,0,0,1,.3,2,2,0,0,0,.91-.22,3.07,3.07,0,0,0,.86-.74v.45a3,3,0,0,1-.91.66,2.75,2.75,0,0,1-1.11.21,3.08,3.08,0,0,1-1.48-.34,2.27,2.27,0,0,1-1-1,2.6,2.6,0,0,1-.35-1.33A2.73,2.73,0,0,1,57,39,2.69,2.69,0,0,1,58,38a2.8,2.8,0,0,1,1.41-.37,3.21,3.21,0,0,1,1.16.24A1.78,1.78,0,0,0,61,38a.29.29,0,0,0,.21-.09.52.52,0,0,0,.12-.29Z" transform="translate(-0.02 -0.02)"/><path class="cls-1" d="M65.86,41.44H64l-.21.5a1,1,0,0,0-.11.42.33.33,0,0,0,.18.32,1.16,1.16,0,0,0,.51.1v.14H62.64v-.14a.76.76,0,0,0,.46-.24,2.93,2.93,0,0,0,.45-.78l1.86-4.16h.08l1.87,4.27a2.53,2.53,0,0,0,.45.77.63.63,0,0,0,.37.14v.14H65.66v-.14h.1a.79.79,0,0,0,.43-.09.21.21,0,0,0,.08-.17.77.77,0,0,0,0-.15l-.12-.29Zm-.14-.29L65,39.36l-.8,1.79Z" transform="translate(-0.02 -0.02)"/><path class="cls-1" d="M71,40.56V42a1.45,1.45,0,0,0,.06.54.33.33,0,0,0,.18.17,1.29,1.29,0,0,0,.49.07v.14H69.1v-.14a1.29,1.29,0,0,0,.49-.07.45.45,0,0,0,.18-.18,1.71,1.71,0,0,0,0-.53V38.62a1.76,1.76,0,0,0,0-.53.42.42,0,0,0-.18-.17,1.12,1.12,0,0,0-.49-.07v-.14h2.27a2.54,2.54,0,0,1,1.61.4,1.26,1.26,0,0,1,.49,1,1.28,1.28,0,0,1-.32.87,1.62,1.62,0,0,1-.87.49A6,6,0,0,1,71,40.56ZM71,38v2.25h.2a1,1,0,0,0,.72-.28,1.24,1.24,0,0,0,.25-.86,1.2,1.2,0,0,0-.25-.85,1,1,0,0,0-.76-.27Z" transform="translate(-0.02 -0.02)"/><path class="cls-1" d="M77.22,42.78v.14H74.5v-.14h.17A.81.81,0,0,0,75,42.7a.42.42,0,0,0,.15-.19,1.52,1.52,0,0,0,0-.48V38.6a1.68,1.68,0,0,0,0-.5.4.4,0,0,0-.17-.17.7.7,0,0,0-.35-.08H74.5v-.14h2.72v.14h-.17a.81.81,0,0,0-.37.08.37.37,0,0,0-.15.19,1.4,1.4,0,0,0,0,.48V42a1.6,1.6,0,0,0,0,.5.39.39,0,0,0,.17.17.7.7,0,0,0,.35.08Z" transform="translate(-0.02 -0.02)"/><path class="cls-1" d="M83,37.71v1.41h-.14a2.11,2.11,0,0,0-.27-.7,1.06,1.06,0,0,0-.41-.34,1.25,1.25,0,0,0-.51-.07h-.39v4a1.73,1.73,0,0,0,0,.5.43.43,0,0,0,.18.17.67.67,0,0,0,.35.08H82v.14H79.29v-.14h.18a.74.74,0,0,0,.36-.08.38.38,0,0,0,.16-.19A1.52,1.52,0,0,0,80,42V38h-.38a1.08,1.08,0,0,0-.76.22,1.52,1.52,0,0,0-.42.89h-.15V37.71Z" transform="translate(-0.02 -0.02)"/><path class="cls-1" d="M86.61,41.44H84.77l-.22.5a1.19,1.19,0,0,0-.11.42.33.33,0,0,0,.18.32,1.24,1.24,0,0,0,.51.1v.14H83.4v-.14a.79.79,0,0,0,.46-.24,2.72,2.72,0,0,0,.44-.78l1.87-4.16h.07l1.88,4.27a2.81,2.81,0,0,0,.44.77.66.66,0,0,0,.37.14v.14H86.41v-.14h.1a.74.74,0,0,0,.43-.09.19.19,0,0,0,.08-.17.39.39,0,0,0,0-.15,2.2,2.2,0,0,0-.11-.29Zm-.13-.29-.78-1.79-.8,1.79Z" transform="translate(-0.02 -0.02)"/><path class="cls-1" d="M94.62,41.09l-.2,1.83H89.8v-.14H90a.81.81,0,0,0,.37-.08.37.37,0,0,0,.15-.19,1.52,1.52,0,0,0,0-.48V38.6a1.68,1.68,0,0,0,0-.5.35.35,0,0,0-.17-.17.7.7,0,0,0-.35-.08H89.8v-.14h2.78v.14h-.23a.74.74,0,0,0-.36.08.38.38,0,0,0-.16.19,1.52,1.52,0,0,0,0,.48v3.32a1.77,1.77,0,0,0,0,.51.29.29,0,0,0,.18.16,1.52,1.52,0,0,0,.47,0h.43a1.41,1.41,0,0,0,.69-.15,1.24,1.24,0,0,0,.48-.46,3.53,3.53,0,0,0,.38-.93Z" transform="translate(-0.02 -0.02)"/><path class="cls-1" d="M105.08,37.71l2.57,3.23V38.7a1.05,1.05,0,0,0-.13-.63.77.77,0,0,0-.62-.22v-.14h1.72v.14a1.6,1.6,0,0,0-.45.11.48.48,0,0,0-.17.22,1.49,1.49,0,0,0-.07.52V43h-.13l-3.52-4.34V42a.74.74,0,0,0,.21.61.76.76,0,0,0,.47.16h.12v.14h-1.85v-.14a.89.89,0,0,0,.6-.18A.85.85,0,0,0,104,42V38.34l-.11-.14a1.21,1.21,0,0,0-.29-.28,1.1,1.1,0,0,0-.37-.07v-.14Z" transform="translate(-0.02 -0.02)"/><path class="cls-1" d="M112.48,37.64a2.58,2.58,0,0,1,2.8,2.65A2.81,2.81,0,0,1,114.7,42a2.9,2.9,0,0,1-4.35,0,2.76,2.76,0,0,1-.6-1.78,2.64,2.64,0,0,1,.78-1.94A2.55,2.55,0,0,1,112.48,37.64Zm0,.24a1.17,1.17,0,0,0-1.08.73,3.8,3.8,0,0,0-.31,1.72,3.34,3.34,0,0,0,.47,2,1.07,1.07,0,0,0,.92.45,1.09,1.09,0,0,0,.66-.19,1.61,1.61,0,0,0,.52-.79,4.25,4.25,0,0,0,.19-1.41,4.62,4.62,0,0,0-.19-1.54,1.53,1.53,0,0,0-.49-.73A1.17,1.17,0,0,0,112.52,37.88Z" transform="translate(-0.02 -0.02)"/><path class="cls-1" d="M118.28,40.54V42a1.84,1.84,0,0,0,0,.54.4.4,0,0,0,.19.17,1.26,1.26,0,0,0,.49.07v.14h-2.67v-.14a1.29,1.29,0,0,0,.49-.07.45.45,0,0,0,.18-.18,1.71,1.71,0,0,0,0-.53V38.62a1.76,1.76,0,0,0,0-.53.42.42,0,0,0-.18-.17,1.12,1.12,0,0,0-.49-.07v-.14h2.42a5.13,5.13,0,0,1,1.38.13,1.48,1.48,0,0,1,.72.48,1.33,1.33,0,0,1,.27.83,1.25,1.25,0,0,1-.41,1,1.77,1.77,0,0,1-.74.36l1.25,1.76a2.56,2.56,0,0,0,.35.43.66.66,0,0,0,.36.13v.14H120.3l-1.68-2.38Zm0-2.55v2.28h.22a2.32,2.32,0,0,0,.8-.1.76.76,0,0,0,.42-.35,1.3,1.3,0,0,0,.15-.67A1,1,0,0,0,118.69,38Z" transform="translate(-0.02 -0.02)"/><path class="cls-1" d="M126.26,41.14l1.41-3.43h2.12v.14h-.17a.74.74,0,0,0-.36.08.4.4,0,0,0-.16.18,1.52,1.52,0,0,0,0,.48V42a1.73,1.73,0,0,0,0,.5.43.43,0,0,0,.18.17.66.66,0,0,0,.34.08h.17v.14h-2.72v-.14h.17a.75.75,0,0,0,.37-.08.38.38,0,0,0,.16-.19,1.92,1.92,0,0,0,0-.48V38.17l-2,4.75h-.09l-2-4.72v3.67a3.59,3.59,0,0,0,0,.47.54.54,0,0,0,.22.32.89.89,0,0,0,.52.12v.14h-1.78v-.14h0a.83.83,0,0,0,.32-.06.5.5,0,0,0,.23-.16.81.81,0,0,0,.12-.28s0-.16,0-.39v-3.3a2,2,0,0,0,0-.49.37.37,0,0,0-.18-.17.67.67,0,0,0-.35-.08h-.16v-.14h2.13Z" transform="translate(-0.02 -0.02)"/><path class="cls-1" d="M133.84,41.44H132l-.22.5a1.14,1.14,0,0,0-.1.42.34.34,0,0,0,.17.32,1.24,1.24,0,0,0,.51.1v.14h-1.73v-.14a.76.76,0,0,0,.46-.24,2.93,2.93,0,0,0,.45-.78l1.86-4.16h.08l1.87,4.27a2.53,2.53,0,0,0,.45.77.62.62,0,0,0,.36.14v.14h-2.52v-.14h.11a.73.73,0,0,0,.42-.09.2.2,0,0,0,.09-.17.77.77,0,0,0,0-.15l-.12-.29Zm-.13-.29-.77-1.79-.8,1.79Z" transform="translate(-0.02 -0.02)"/><path class="cls-1" d="M141.86,41.09l-.2,1.83H137v-.14h.18a.74.74,0,0,0,.36-.08.38.38,0,0,0,.16-.19,1.92,1.92,0,0,0,0-.48V38.6a2.14,2.14,0,0,0,0-.5.37.37,0,0,0-.18-.17.66.66,0,0,0-.34-.08H137v-.14h2.78v.14h-.23a.74.74,0,0,0-.36.08.38.38,0,0,0-.16.19,1.52,1.52,0,0,0,0,.48v3.32a1.64,1.64,0,0,0,0,.51.29.29,0,0,0,.18.16,1.44,1.44,0,0,0,.46,0h.44a1.47,1.47,0,0,0,.69-.15,1.39,1.39,0,0,0,.48-.46,3.91,3.91,0,0,0,.38-.93Z" transform="translate(-0.02 -0.02)"/><path class="cls-1" d="M150.23,37.71h2.69v.14h-.14a.94.94,0,0,0-.41.06.48.48,0,0,0-.17.18,2.07,2.07,0,0,0,0,.56V41.2a2.63,2.63,0,0,0,.1.92.91.91,0,0,0,.35.38,1.13,1.13,0,0,0,.61.15,1.29,1.29,0,0,0,.72-.19,1.2,1.2,0,0,0,.45-.52,3.52,3.52,0,0,0,.14-1.17V38.65a1.2,1.2,0,0,0-.07-.5.48.48,0,0,0-.18-.21,1.1,1.1,0,0,0-.49-.09v-.14h1.8v.14h-.11a.69.69,0,0,0-.36.09.49.49,0,0,0-.21.26,1.22,1.22,0,0,0,0,.45v2a5.14,5.14,0,0,1-.12,1.32,1.5,1.5,0,0,1-.59.75,2.13,2.13,0,0,1-1.28.34,2.48,2.48,0,0,1-1.05-.18,1.53,1.53,0,0,1-.71-.63,2.16,2.16,0,0,1-.21-1V38.65a1.6,1.6,0,0,0-.05-.56.37.37,0,0,0-.17-.18,1.14,1.14,0,0,0-.45-.06Z" transform="translate(-0.02 -0.02)"/><path class="cls-1" d="M158.32,37.71l2.57,3.23V38.7a1,1,0,0,0-.14-.63.73.73,0,0,0-.61-.22v-.14h1.72v.14a1.6,1.6,0,0,0-.45.11.48.48,0,0,0-.17.22,1.28,1.28,0,0,0-.07.52V43H161l-3.52-4.34V42a.74.74,0,0,0,.21.61.76.76,0,0,0,.47.16h.12v.14h-1.85v-.14a.89.89,0,0,0,.6-.18.85.85,0,0,0,.17-.59V38.34l-.11-.14a1.21,1.21,0,0,0-.29-.28,1.1,1.1,0,0,0-.37-.07v-.14Z" transform="translate(-0.02 -0.02)"/><path class="cls-1" d="M165.56,42.78v.14h-2.73v-.14H163a.74.74,0,0,0,.36-.08.38.38,0,0,0,.16-.19,1.92,1.92,0,0,0,0-.48V38.6a2.14,2.14,0,0,0,0-.5.37.37,0,0,0-.18-.17.66.66,0,0,0-.34-.08h-.18v-.14h2.73v.14h-.17a.75.75,0,0,0-.37.08.38.38,0,0,0-.16.19,1.52,1.52,0,0,0,0,.48V42a2.21,2.21,0,0,0,0,.5.43.43,0,0,0,.18.17.67.67,0,0,0,.35.08Z" transform="translate(-0.02 -0.02)"/><path class="cls-1" d="M172,37.71v.14a.85.85,0,0,0-.51.3,4.41,4.41,0,0,0-.48.91l-1.8,4h-.12l-1.79-4.14a4.85,4.85,0,0,0-.43-.88.58.58,0,0,0-.41-.17v-.14h2.49v.14h-.08a.81.81,0,0,0-.46.09.18.18,0,0,0-.09.17.55.55,0,0,0,0,.16c0,.06.09.23.21.5l1.11,2.6,1-2.31a4.76,4.76,0,0,0,.22-.56.92.92,0,0,0,0-.25.31.31,0,0,0-.07-.2.35.35,0,0,0-.18-.13,1,1,0,0,0-.43-.07v-.14Z" transform="translate(-0.02 -0.02)"/><path class="cls-1" d="M174.83,38v2.12h.11a.82.82,0,0,0,.72-.31,1.92,1.92,0,0,0,.28-.92h.15v2.73h-.15a2,2,0,0,0-.19-.73.82.82,0,0,0-.35-.38,1.24,1.24,0,0,0-.57-.1v1.47a2.23,2.23,0,0,0,0,.52.31.31,0,0,0,.14.16.62.62,0,0,0,.32.06h.31a1.68,1.68,0,0,0,1.8-1.37h.15l-.24,1.66h-4.5v-.14H173a.81.81,0,0,0,.37-.08.42.42,0,0,0,.15-.19,1.52,1.52,0,0,0,0-.48V38.6a2,2,0,0,0,0-.43.34.34,0,0,0-.14-.21.68.68,0,0,0-.4-.11h-.17v-.14h4.36v1.54h-.15a1.84,1.84,0,0,0-.31-.81,1.1,1.1,0,0,0-.57-.36,2.9,2.9,0,0,0-.81-.07Z" transform="translate(-0.02 -0.02)"/><path class="cls-1" d="M180.66,40.54V42a1.45,1.45,0,0,0,.06.54.33.33,0,0,0,.18.17,1.29,1.29,0,0,0,.49.07v.14h-2.67v-.14a1.29,1.29,0,0,0,.49-.07.35.35,0,0,0,.18-.18,1.71,1.71,0,0,0,.05-.53V38.62a1.76,1.76,0,0,0-.05-.53.33.33,0,0,0-.18-.17,1.12,1.12,0,0,0-.49-.07v-.14h2.42a5.13,5.13,0,0,1,1.38.13,1.44,1.44,0,0,1,.72.48,1.33,1.33,0,0,1,.27.83,1.21,1.21,0,0,1-.41,1,1.71,1.71,0,0,1-.74.36l1.25,1.76a2.56,2.56,0,0,0,.35.43.66.66,0,0,0,.37.13v.14h-1.65L181,40.54Zm0-2.55v2.28h.22a2.28,2.28,0,0,0,.8-.1.76.76,0,0,0,.42-.35,1.3,1.3,0,0,0,.15-.67,1.21,1.21,0,0,0-.28-.88,1.19,1.19,0,0,0-.89-.28Z" transform="translate(-0.02 -0.02)"/><path class="cls-1" d="M188.59,37.59l0,1.74h-.16a1.73,1.73,0,0,0-.55-1,1.35,1.35,0,0,0-.94-.4.88.88,0,0,0-.62.21.65.65,0,0,0-.23.48.62.62,0,0,0,.08.31,1.34,1.34,0,0,0,.36.35,6.56,6.56,0,0,0,.83.45,3.94,3.94,0,0,1,1.24.85,1.44,1.44,0,0,1,.31.92,1.47,1.47,0,0,1-.51,1.12,1.84,1.84,0,0,1-1.29.47,2.42,2.42,0,0,1-.47,0,2.73,2.73,0,0,1-.54-.19.88.88,0,0,0-.31-.07.4.4,0,0,0-.21.07.58.58,0,0,0-.18.24h-.14v-2h.14a2.27,2.27,0,0,0,.65,1.27,1.52,1.52,0,0,0,1,.43,1,1,0,0,0,.69-.23.73.73,0,0,0,.25-.55.64.64,0,0,0-.1-.35,1,1,0,0,0-.29-.33,4.51,4.51,0,0,0-.71-.41,6,6,0,0,1-1-.59,1.88,1.88,0,0,1-.48-.55,1.42,1.42,0,0,1-.17-.67,1.39,1.39,0,0,1,.46-1.06,1.6,1.6,0,0,1,1.15-.44,2,2,0,0,1,.49.06,2.57,2.57,0,0,1,.44.17,1,1,0,0,0,.37.13.19.19,0,0,0,.15-.06.64.64,0,0,0,.11-.3Z" transform="translate(-0.02 -0.02)"/><path class="cls-1" d="M192.78,42.78v.14h-2.72v-.14h.17a.78.78,0,0,0,.37-.08.37.37,0,0,0,.15-.19,1.52,1.52,0,0,0,0-.48V38.6a1.68,1.68,0,0,0,0-.5.35.35,0,0,0-.17-.17.7.7,0,0,0-.35-.08h-.17v-.14h2.72v.14h-.17a.74.74,0,0,0-.36.08.38.38,0,0,0-.16.19,1.52,1.52,0,0,0,0,.48V42a1.73,1.73,0,0,0,0,.5.46.46,0,0,0,.17.17.7.7,0,0,0,.35.08Z" transform="translate(-0.02 -0.02)"/><path class="cls-1" d="M198.56,37.71v1.41h-.14a2.11,2.11,0,0,0-.27-.7,1.06,1.06,0,0,0-.41-.34,1.25,1.25,0,0,0-.51-.07h-.39v4a1.6,1.6,0,0,0,0,.5.35.35,0,0,0,.17.17.67.67,0,0,0,.35.08h.17v.14h-2.72v-.14H195a.74.74,0,0,0,.36-.08.38.38,0,0,0,.16-.19,1.52,1.52,0,0,0,0-.48V38h-.37a1.11,1.11,0,0,0-.77.22,1.52,1.52,0,0,0-.42.89h-.15V37.71Z" transform="translate(-0.02 -0.02)"/><path class="cls-1" d="M205.08,37.71v.14a.7.7,0,0,0-.4.15,4.06,4.06,0,0,0-.61.88l-1.13,1.89V42a1.56,1.56,0,0,0,.05.5.36.36,0,0,0,.16.17.67.67,0,0,0,.33.08h.3v.14h-2.93v-.14h.28a.74.74,0,0,0,.36-.08.38.38,0,0,0,.16-.19,1.52,1.52,0,0,0,0-.48V41l-1.22-2.23A3.56,3.56,0,0,0,200,38a.62.62,0,0,0-.4-.12v-.14h2.5v.14h-.11a.52.52,0,0,0-.32.07.17.17,0,0,0-.09.13,2.13,2.13,0,0,0,.31.7l.94,1.73.94-1.58a2,2,0,0,0,.34-.76A.2.2,0,0,0,204,38a.89.89,0,0,0-.49-.12v-.14Z" transform="translate(-0.02 -0.02)"/></g></g></svg>